<svg width="14" height="13" viewBox="0 0 14 13" fill="none" xmlns="http://www.w3.org/2000/svg">
<path d="M2.69995 3.03366V2.83366C2.69995 2.08692 2.69995 1.71328 2.84528 1.42806C2.97311 1.17718 3.17693 0.973351 3.42782 0.84552C3.71303 0.700195 4.08668 0.700195 4.83341 0.700195H10.5667C11.3135 0.700195 11.6863 0.700195 11.9715 0.84552C12.2224 0.973351 12.4269 1.17718 12.5548 1.42806C12.7 1.713 12.7 2.08619 12.7 2.83147V7.23559C12.7 7.98087 12.7 8.35352 12.5548 8.63846C12.4269 8.88934 12.2226 9.09385 11.9717 9.22168C11.6867 9.36686 11.314 9.36686 10.5687 9.36686H5.69995M0.699951 9.23366V5.50033C0.699951 4.75359 0.699951 4.37994 0.845276 4.09473C0.973107 3.84384 1.17693 3.64002 1.42782 3.51219C1.71303 3.36686 2.08668 3.36686 2.83341 3.36686H3.23341C3.98015 3.36686 4.353 3.36686 4.63821 3.51219C4.8891 3.64002 5.0936 3.84384 5.22144 4.09473C5.36662 4.37966 5.36662 4.75286 5.36662 5.49814V9.23559C5.36662 9.98086 5.36662 10.3535 5.22144 10.6385C5.0936 10.8893 4.8891 11.0938 4.63821 11.2217C4.35328 11.3669 3.98062 11.3669 3.23534 11.3669H2.83122C2.08595 11.3669 1.71275 11.3669 1.42782 11.2217C1.17693 11.0938 0.973107 10.8893 0.845276 10.6385C0.699951 10.3532 0.699951 9.9804 0.699951 9.23366Z" stroke="#626187" stroke-width="1.4" stroke-linecap="round" stroke-linejoin="round"/>
</svg>
