<svg width="305" height="110" viewBox="0 0 305 110" fill="none" xmlns="http://www.w3.org/2000/svg">
<path d="M305 87.2256H289.388V107.341H260.415V87.2256H204.871V67.8603L252.008 2.25854H282.783L239.999 63.657H261.316V45.7929H289.388V63.657H305V87.2256Z" fill="#A937F4"/>
<path d="M151.043 109.443C142.036 109.443 134.03 107.291 127.024 102.988C120.018 98.6846 114.514 92.4297 110.511 84.2232C106.608 75.9166 104.656 66.1089 104.656 54.8C104.656 43.4911 106.608 33.7334 110.511 25.5269C114.514 17.2204 120.018 10.9154 127.024 6.61199C134.03 2.30859 142.036 0.156891 151.043 0.156891C159.95 0.156891 167.906 2.30859 174.912 6.61199C181.917 10.9154 187.372 17.2204 191.275 25.5269C195.278 33.7334 197.279 43.4911 197.279 54.8C197.279 66.1089 195.278 75.9166 191.275 84.2232C187.372 92.4297 181.917 98.6846 174.912 102.988C167.906 107.291 159.95 109.443 151.043 109.443ZM151.043 85.1239C156.047 85.1239 160 82.722 162.902 77.9182C165.905 73.0144 167.406 65.3083 167.406 54.8C167.406 44.2917 165.905 36.6357 162.902 31.8319C160 26.928 156.047 24.4761 151.043 24.4761C145.939 24.4761 141.886 26.928 138.883 31.8319C135.981 36.6357 134.53 44.2917 134.53 54.8C134.53 65.3083 135.981 73.0144 138.883 77.9182C141.886 82.722 145.939 85.1239 151.043 85.1239Z" fill="#A937F4"/>
<path d="M100.123 87.2256H84.5112V107.341H55.5383V87.2256H-0.00549316V67.8603L47.1317 2.25854H77.906L35.1222 63.657H56.439V45.7929H84.5112V63.657H100.123V87.2256Z" fill="#A937F4"/>
</svg>
