<svg width="18" height="12" viewBox="0 0 18 12" fill="none" xmlns="http://www.w3.org/2000/svg">
<path fill-rule="evenodd" clip-rule="evenodd" d="M3.35225 1.10225C3.57192 0.882583 3.92808 0.882583 4.14775 1.10225L6.39775 3.35225C6.61742 3.57192 6.61742 3.92808 6.39775 4.14775C6.17808 4.36742 5.82192 4.36742 5.60225 4.14775L4.3125 2.858V9C4.3125 9.24864 4.41127 9.4871 4.58709 9.66291C4.7629 9.83873 5.00136 9.9375 5.25 9.9375H9.75C10.0607 9.9375 10.3125 10.1893 10.3125 10.5C10.3125 10.8107 10.0607 11.0625 9.75 11.0625H5.25C4.70299 11.0625 4.17839 10.8452 3.79159 10.4584C3.4048 10.0716 3.1875 9.54701 3.1875 9V2.858L1.89775 4.14775C1.67808 4.36742 1.32192 4.36742 1.10225 4.14775C0.882583 3.92808 0.882583 3.57192 1.10225 3.35225L3.35225 1.10225ZM7.6875 1.5C7.6875 1.18934 7.93934 0.9375 8.25 0.9375H12.75C13.297 0.9375 13.8216 1.1548 14.2084 1.54159C14.5952 1.92839 14.8125 2.45299 14.8125 3V9.142L16.1023 7.85225C16.3219 7.63258 16.6781 7.63258 16.8977 7.85225C17.1174 8.07192 17.1174 8.42808 16.8977 8.64775L14.6477 10.8977C14.4281 11.1174 14.0719 11.1174 13.8523 10.8977L11.6023 8.64775C11.3826 8.42808 11.3826 8.07192 11.6023 7.85225C11.8219 7.63258 12.1781 7.63258 12.3977 7.85225L13.6875 9.142V3C13.6875 2.75136 13.5887 2.5129 13.4129 2.33709C13.2371 2.16127 12.9986 2.0625 12.75 2.0625H8.25C7.93934 2.0625 7.6875 1.81066 7.6875 1.5Z" fill="#EB8E04"/>
</svg>
