<svg width="20" height="20" viewBox="0 0 20 20" fill="none" xmlns="http://www.w3.org/2000/svg">
<path fill-rule="evenodd" clip-rule="evenodd" d="M6.66667 1.04166C7.01184 1.04166 7.29167 1.32148 7.29167 1.66666V2.70832H12.7083V1.66666C12.7083 1.32148 12.9882 1.04166 13.3333 1.04166C13.6785 1.04166 13.9583 1.32148 13.9583 1.66666V2.70832H15.8333C16.4411 2.70832 17.024 2.94977 17.4538 3.37954C17.8836 3.80931 18.125 4.3922 18.125 4.99999V14.1667C18.125 14.3324 18.0592 14.4914 17.9419 14.6086L13.7753 18.7753C13.6581 18.8925 13.4991 18.9583 13.3333 18.9583H4.16667C3.55888 18.9583 2.97598 18.7169 2.54621 18.2871C2.11644 17.8573 1.875 17.2744 1.875 16.6667V4.99999C1.875 4.3922 2.11644 3.80931 2.54621 3.37954C2.97598 2.94977 3.55888 2.70832 4.16667 2.70832H6.04167V1.66666C6.04167 1.32148 6.32149 1.04166 6.66667 1.04166ZM6.04167 3.95832H4.16667C3.8904 3.95832 3.62545 4.06807 3.4301 4.26342C3.23475 4.45877 3.125 4.72372 3.125 4.99999V7.70832H16.875V4.99999C16.875 4.72372 16.7653 4.45877 16.5699 4.26342C16.3746 4.06807 16.1096 3.95832 15.8333 3.95832H13.9583V4.99999C13.9583 5.34517 13.6785 5.62499 13.3333 5.62499C12.9882 5.62499 12.7083 5.34517 12.7083 4.99999V3.95832H7.29167V4.99999C7.29167 5.34517 7.01184 5.62499 6.66667 5.62499C6.32149 5.62499 6.04167 5.34517 6.04167 4.99999V3.95832ZM16.875 8.95832H3.125V16.6667C3.125 16.9429 3.23475 17.2079 3.4301 17.4032C3.62545 17.5986 3.8904 17.7083 4.16667 17.7083H11.875V15C11.875 14.3922 12.1164 13.8093 12.5462 13.3795C12.976 12.9498 13.5589 12.7083 14.1667 12.7083H16.875V8.95832ZM16.8244 13.9583H14.1667C13.8904 13.9583 13.6254 14.0681 13.4301 14.2634C13.2347 14.4588 13.125 14.7237 13.125 15V17.6578L16.8244 13.9583Z" fill="#111111"/>
</svg>
