<svg width="18" height="18" viewBox="0 0 18 18" fill="none" xmlns="http://www.w3.org/2000/svg">
<path fill-rule="evenodd" clip-rule="evenodd" d="M6 0.9375C6.31066 0.9375 6.5625 1.18934 6.5625 1.5V2.4375H11.4375V1.5C11.4375 1.18934 11.6893 0.9375 12 0.9375C12.3107 0.9375 12.5625 1.18934 12.5625 1.5V2.4375H14.25C14.797 2.4375 15.3216 2.6548 15.7084 3.04159C16.0952 3.42839 16.3125 3.95299 16.3125 4.5V9C16.3125 9.31066 16.0607 9.5625 15.75 9.5625C15.4393 9.5625 15.1875 9.31066 15.1875 9V8.0625H2.8125V15C2.8125 15.2486 2.91127 15.4871 3.08709 15.6629C3.2629 15.8387 3.50136 15.9375 3.75 15.9375H9.375C9.68566 15.9375 9.9375 16.1893 9.9375 16.5C9.9375 16.8107 9.68566 17.0625 9.375 17.0625H3.75C3.20299 17.0625 2.67839 16.8452 2.29159 16.4584C1.9048 16.0716 1.6875 15.547 1.6875 15V4.5C1.6875 3.95299 1.9048 3.42839 2.29159 3.04159C2.67839 2.6548 3.20299 2.4375 3.75 2.4375H5.4375V1.5C5.4375 1.18934 5.68934 0.9375 6 0.9375ZM5.4375 3.5625H3.75C3.50136 3.5625 3.2629 3.66127 3.08709 3.83709C2.91127 4.0129 2.8125 4.25136 2.8125 4.5V6.9375H15.1875V4.5C15.1875 4.25136 15.0887 4.0129 14.9129 3.83709C14.7371 3.66127 14.4986 3.5625 14.25 3.5625H12.5625V4.5C12.5625 4.81066 12.3107 5.0625 12 5.0625C11.6893 5.0625 11.4375 4.81066 11.4375 4.5V3.5625H6.5625V4.5C6.5625 4.81066 6.31066 5.0625 6 5.0625C5.68934 5.0625 5.4375 4.81066 5.4375 4.5V3.5625ZM13.5 11.8125C12.568 11.8125 11.8125 12.568 11.8125 13.5C11.8125 14.432 12.568 15.1875 13.5 15.1875C14.432 15.1875 15.1875 14.432 15.1875 13.5C15.1875 12.568 14.432 11.8125 13.5 11.8125ZM10.6875 13.5C10.6875 11.9467 11.9467 10.6875 13.5 10.6875C15.0533 10.6875 16.3125 11.9467 16.3125 13.5C16.3125 14.0732 16.141 14.6064 15.8465 15.051L16.8977 16.1023C17.1174 16.3219 17.1174 16.6781 16.8977 16.8977C16.6781 17.1174 16.3219 17.1174 16.1023 16.8977L15.051 15.8465C14.6064 16.141 14.0732 16.3125 13.5 16.3125C11.9467 16.3125 10.6875 15.0533 10.6875 13.5Z" fill="#111111"/>
</svg>
