<svg width="56" height="56" viewBox="0 0 56 56" fill="none" xmlns="http://www.w3.org/2000/svg">
<path d="M0 16C0 7.16344 7.16344 0 16 0H40C48.8366 0 56 7.16344 56 16V40C56 48.8366 48.8366 56 40 56H16C7.16344 56 0 48.8366 0 40V16Z" fill="#225DFF"/>
<path fill-rule="evenodd" clip-rule="evenodd" d="M23.6996 22.0841C25.1082 21.0578 26.8371 20.5682 28.5746 20.7038C30.3122 20.8394 31.9442 21.5911 33.1766 22.8234C34.409 24.0558 35.1607 25.6878 35.2962 27.4254C35.4318 29.163 34.9423 30.8918 33.916 32.3004C32.8896 33.709 31.3939 34.7047 29.6984 35.1081C28.0814 35.4928 26.3842 35.3147 24.8854 34.6074L20.6806 36.0328C20.4778 36.1015 20.2537 36.0492 20.1023 35.8978C19.9509 35.7464 19.8986 35.5222 19.9673 35.3195L21.3926 31.1147C20.6854 29.6159 20.5073 27.9186 20.892 26.3017C21.2953 24.6062 22.291 23.1105 23.6996 22.0841ZM28.4871 21.8254C27.0169 21.7107 25.554 22.1249 24.3621 22.9933C23.1702 23.8618 22.3277 25.1274 21.9864 26.5621C21.6451 27.9967 21.8274 29.5061 22.5005 30.8183C22.57 30.9537 22.5816 31.1115 22.5327 31.2556L21.3985 34.6015L24.7444 33.4673C24.8886 33.4185 25.0463 33.4301 25.1818 33.4995C26.4939 34.1726 28.0033 34.355 29.438 34.0136C30.8727 33.6723 32.1383 32.8298 33.0067 31.6379C33.8752 30.446 34.2894 28.9832 34.1747 27.5129C34.06 26.0427 33.4239 24.6617 32.3811 23.6189C31.3383 22.5761 29.9574 21.9401 28.4871 21.8254Z" fill="white"/>
</svg>
