<svg width="44" height="44" viewBox="0 0 44 44" fill="none" xmlns="http://www.w3.org/2000/svg">
<rect width="44" height="44" rx="16" fill="#111111"/>
<path fill-rule="evenodd" clip-rule="evenodd" d="M14.5462 14.5462C14.976 14.1164 15.5589 13.875 16.1667 13.875H27C27.3868 13.875 27.7577 14.0286 28.0312 14.3021C28.3047 14.5756 28.4583 14.9466 28.4583 15.3333V17.2083H28.6667C29.0534 17.2083 29.4244 17.362 29.6979 17.6355C29.9714 17.909 30.125 18.2799 30.125 18.6667V21.5157C30.2744 21.5866 30.412 21.683 30.5312 21.8021C30.8047 22.0756 30.9583 22.4466 30.9583 22.8333V24.5C30.9583 24.8868 30.8047 25.2577 30.5312 25.5312C30.412 25.6503 30.2744 25.7468 30.125 25.8176V28.6667C30.125 29.0534 29.9714 29.4244 29.6979 29.6979C29.4244 29.9714 29.0534 30.125 28.6667 30.125H16.1667C15.5589 30.125 14.976 29.8836 14.5462 29.4538C14.1164 29.024 13.875 28.4411 13.875 27.8333V16.1667C13.875 15.5589 14.1164 14.976 14.5462 14.5462ZM15.125 18.2079V27.8333C15.125 28.1096 15.2347 28.3746 15.4301 28.5699C15.6254 28.7653 15.8904 28.875 16.1667 28.875H28.6667C28.7219 28.875 28.7749 28.853 28.814 28.814C28.8531 28.7749 28.875 28.7219 28.875 28.6667V25.9583H27C26.3922 25.9583 25.8093 25.7169 25.3795 25.2871C24.9498 24.8573 24.7083 24.2745 24.7083 23.6667C24.7083 23.0589 24.9498 22.476 25.3795 22.0462C25.8093 21.6164 26.3922 21.375 27 21.375H28.875V18.6667C28.875 18.6114 28.8531 18.5584 28.814 18.5194C28.7749 18.4803 28.7219 18.4583 28.6667 18.4583H16.1667C15.8011 18.4583 15.4446 18.371 15.125 18.2079ZM27.2083 17.2083H16.1667C15.8904 17.2083 15.6254 17.0986 15.4301 16.9032C15.2347 16.7079 15.125 16.4429 15.125 16.1667C15.125 15.8904 15.2347 15.6254 15.4301 15.4301C15.6254 15.2347 15.8904 15.125 16.1667 15.125H27C27.0553 15.125 27.1082 15.1469 27.1473 15.186C27.1864 15.2251 27.2083 15.2781 27.2083 15.3333V17.2083ZM27 22.625C26.7237 22.625 26.4588 22.7347 26.2634 22.9301C26.0681 23.1254 25.9583 23.3904 25.9583 23.6667C25.9583 23.9429 26.0681 24.2079 26.2634 24.4032C26.4588 24.5986 26.7237 24.7083 27 24.7083H29.5C29.5553 24.7083 29.6082 24.6864 29.6473 24.6473C29.6864 24.6082 29.7083 24.5553 29.7083 24.5V22.8333C29.7083 22.7781 29.6864 22.7251 29.6473 22.686C29.6082 22.6469 29.5553 22.625 29.5 22.625H27Z" fill="white"/>
</svg>
