<svg width="32" height="32" viewBox="0 0 32 32" fill="none" xmlns="http://www.w3.org/2000/svg">
<path d="M12 0.5H20C26.3513 0.5 31.5 5.64873 31.5 12V20C31.5 26.3513 26.3513 31.5 20 31.5H12C5.64873 31.5 0.5 26.3513 0.5 20V12C0.5 5.64873 5.64873 0.5 12 0.5Z" fill="white"/>
<path d="M12 0.5H20C26.3513 0.5 31.5 5.64873 31.5 12V20C31.5 26.3513 26.3513 31.5 20 31.5H12C5.64873 31.5 0.5 26.3513 0.5 20V12C0.5 5.64873 5.64873 0.5 12 0.5Z" stroke="#D3DBED"/>
<path fill-rule="evenodd" clip-rule="evenodd" d="M13.8665 9.3665C13.6642 9.5688 13.5625 9.80794 13.5625 10V10.9375H18.4375V10C18.4375 9.80794 18.3358 9.5688 18.1335 9.3665C17.9312 9.16419 17.6921 9.0625 17.5 9.0625H14.5C14.3079 9.0625 14.0688 9.16419 13.8665 9.3665ZM19.5625 10.9375V10C19.5625 9.44206 19.2892 8.9312 18.929 8.571C18.5688 8.21081 18.0579 7.9375 17.5 7.9375H14.5C13.9421 7.9375 13.4312 8.21081 13.071 8.571C12.7108 8.9312 12.4375 9.44206 12.4375 10V10.9375H9.25C8.93934 10.9375 8.6875 11.1893 8.6875 11.5C8.6875 11.8107 8.93934 12.0625 9.25 12.0625H10.1875V22C10.1875 22.5579 10.4608 23.0688 10.821 23.429C11.1812 23.7892 11.6921 24.0625 12.25 24.0625H19.75C20.3079 24.0625 20.8188 23.7892 21.179 23.429C21.5392 23.0688 21.8125 22.5579 21.8125 22V12.0625H22.75C23.0607 12.0625 23.3125 11.8107 23.3125 11.5C23.3125 11.1893 23.0607 10.9375 22.75 10.9375H19.5625ZM11.3125 12.0625V22C11.3125 22.1921 11.4142 22.4312 11.6165 22.6335C11.8188 22.8358 12.0579 22.9375 12.25 22.9375H19.75C19.9421 22.9375 20.1812 22.8358 20.3835 22.6335C20.5858 22.4312 20.6875 22.1921 20.6875 22V12.0625H11.3125Z" fill="#FF0000"/>
</svg>
