<svg width="20" height="20" viewBox="0 0 20 20" fill="none" xmlns="http://www.w3.org/2000/svg">
<path d="M13.75 6.66667C13.9801 6.66667 14.1666 6.48012 14.1666 6.25C14.1666 6.01988 13.9801 5.83334 13.75 5.83334C13.5198 5.83334 13.3333 6.01988 13.3333 6.25C13.3333 6.48012 13.5198 6.66667 13.75 6.66667Z" fill="#111111"/>
<path fill-rule="evenodd" clip-rule="evenodd" d="M9.73771 1.9336C10.8965 1.20661 12.2677 0.894392 13.627 1.04803C14.9864 1.20167 16.2533 1.81207 17.2206 2.77937C18.1879 3.74667 18.7983 5.01361 18.9519 6.37292C19.1056 7.73224 18.7934 9.10345 18.0664 10.2623C17.3394 11.4211 16.2406 12.2988 14.9499 12.752C13.7849 13.161 12.5258 13.2023 11.3416 12.8755L10.9303 13.2869C10.9303 13.2869 10.9303 13.2869 10.9303 13.2869C10.5006 13.7166 9.9178 13.9582 9.31009 13.9583H9.16663C9.11137 13.9583 9.05838 13.9803 9.01931 14.0194C8.98024 14.0584 8.95829 14.1114 8.95829 14.1667V15C8.95829 15.3868 8.80465 15.7577 8.53116 16.0312C8.25767 16.3047 7.88673 16.4583 7.49996 16.4583H6.66663C6.61137 16.4583 6.55838 16.4803 6.51931 16.5194C6.48024 16.5584 6.45829 16.6114 6.45829 16.6667V17.5C6.45829 17.8868 6.30465 18.2577 6.03116 18.5312C5.75767 18.8047 5.38673 18.9583 4.99996 18.9583H2.49996C2.11319 18.9583 1.74225 18.8047 1.46876 18.5312C1.19527 18.2577 1.04163 17.8868 1.04163 17.5V15.69C1.04176 15.0823 1.28326 14.4994 1.71302 14.0697C1.713 14.0697 1.71304 14.0697 1.71302 14.0697L7.12442 8.65833C6.79769 7.47419 6.83894 6.21504 7.24796 5.05006C7.70112 3.75933 8.5789 2.6606 9.73771 1.9336ZM13.4867 2.29012C12.4086 2.16827 11.3211 2.41589 10.402 2.99247C9.48296 3.56905 8.78678 4.44046 8.42738 5.46414C8.06797 6.48783 8.06661 7.60318 8.42351 8.62774C8.50238 8.85416 8.44477 9.10574 8.27523 9.27528L2.5969 14.9536C2.40157 15.1489 2.29172 15.4138 2.29163 15.69C2.29163 15.69 2.29163 15.69 2.29163 15.69V17.5C2.29163 17.5553 2.31358 17.6082 2.35265 17.6473C2.39171 17.6864 2.4447 17.7083 2.49996 17.7083H4.99996C5.05521 17.7083 5.1082 17.6864 5.14727 17.6473C5.18634 17.6082 5.20829 17.5553 5.20829 17.5V16.6667C5.20829 16.2799 5.36194 15.909 5.63543 15.6355C5.90892 15.362 6.27985 15.2083 6.66663 15.2083H7.49996C7.55521 15.2083 7.6082 15.1864 7.64727 15.1473C7.68634 15.1082 7.70829 15.0553 7.70829 15V14.1667C7.70829 13.7799 7.86194 13.409 8.13543 13.1355C8.40892 12.862 8.77985 12.7083 9.16663 12.7083H9.30983C9.30978 12.7083 9.30987 12.7083 9.30983 12.7083C9.58602 12.7082 9.85101 12.5985 10.0463 12.4031L10.7247 11.7247C10.8942 11.5552 11.1458 11.4976 11.3722 11.5765C12.3968 11.9334 13.5121 11.932 14.5358 11.5726C15.5595 11.2132 16.4309 10.517 17.0075 9.59796C17.5841 8.67891 17.8317 7.59139 17.7098 6.51331C17.588 5.43523 17.1039 4.43042 16.3367 3.66325C15.5695 2.89608 14.5647 2.41197 13.4867 2.29012ZM13.75 6.45834C13.865 6.45834 13.9583 6.36506 13.9583 6.25C13.9583 6.13494 13.865 6.04167 13.75 6.04167C13.6349 6.04167 13.5416 6.13494 13.5416 6.25C13.5416 6.36506 13.6349 6.45834 13.75 6.45834ZM12.7083 6.25C12.7083 5.67471 13.1747 5.20834 13.75 5.20834C14.3253 5.20834 14.7916 5.67471 14.7916 6.25C14.7916 6.8253 14.3253 7.29167 13.75 7.29167C13.1747 7.29167 12.7083 6.8253 12.7083 6.25Z" fill="#111111"/>
</svg>
