<svg width="1120" height="106" viewBox="0 0 1120 106" fill="none" xmlns="http://www.w3.org/2000/svg">
<path d="M1034.3 144.033H998.402V2.01904H1034.3V61.4719C1034.6 61.4719 1034.82 61.4719 1034.97 61.4719C1036.47 61.4719 1038.19 60.2754 1040.13 57.8823C1042.23 55.4892 1044.1 53.0962 1045.74 50.7031L1075.8 2.01904H1114.84V2.69208L1089.26 43.9726C1087.02 47.7118 1084.48 51.7501 1081.64 56.0875C1078.79 60.2754 1075.95 64.0146 1073.11 67.305C1070.42 70.446 1068.03 72.3903 1065.93 73.1382V73.8112C1068.03 74.7086 1070.42 76.653 1073.11 79.6443C1075.95 82.4861 1078.79 85.8513 1081.64 89.7401C1084.63 93.4793 1087.47 97.2184 1090.16 100.958L1120 143.36V144.033H1078.72L1050.68 100.958V101.182C1049.78 99.6863 1048.36 97.7419 1046.41 95.3489C1044.62 92.8062 1042.67 90.4879 1040.58 88.394C1038.64 86.3 1036.92 85.2531 1035.42 85.2531C1035.12 85.2531 1034.9 85.2531 1034.75 85.2531C1034.6 85.2531 1034.45 85.2531 1034.3 85.2531V144.033Z" fill="#CDB4DD" fill-opacity="0.27"/>
<path d="M836.602 72.9139C836.602 54.8163 838.621 40.4579 842.659 29.8386C846.847 19.2194 853.951 11.5914 863.972 6.95488C874.143 2.3183 888.277 0 906.375 0C919.985 0 931.277 1.27133 940.251 3.81397C949.226 6.3566 956.33 10.4697 961.565 16.1532C966.8 21.8368 970.464 29.3899 972.558 38.8126C974.801 48.0858 975.923 59.4529 975.923 72.9139C975.923 86.5245 974.801 98.0412 972.558 107.464C970.464 116.737 966.8 124.215 961.565 129.899C956.33 135.582 949.226 139.696 940.251 142.238C931.277 144.781 919.985 146.052 906.375 146.052C892.764 146.052 881.472 144.781 872.498 142.238C863.524 139.696 856.419 135.582 851.184 129.899C845.949 124.215 842.21 116.737 839.967 107.464C837.723 98.0412 836.602 86.5245 836.602 72.9139ZM906.375 114.643C915.947 114.643 923.126 113.447 927.912 111.054C932.698 108.66 935.914 104.473 937.559 98.4899C939.205 92.3576 940.027 83.8323 940.027 72.9139C940.027 62.1451 939.205 53.7693 937.559 47.7867C935.914 41.804 932.698 37.6161 927.912 35.223C923.126 32.6804 915.947 31.4091 906.375 31.4091C896.952 31.4091 889.773 32.6804 884.837 35.223C880.051 37.6161 876.76 41.804 874.965 47.7867C873.32 53.7693 872.498 62.1451 872.498 72.9139C872.498 83.8323 873.32 92.3576 874.965 98.4899C876.76 104.473 880.051 108.66 884.837 111.054C889.773 113.447 896.952 114.643 906.375 114.643Z" fill="#CDB4DD" fill-opacity="0.27"/>
<path d="M749.1 144.033V32.3064H708.717V2.01904H825.379V32.3064H784.996V144.033H749.1Z" fill="#CDB4DD" fill-opacity="0.27"/>
<path d="M604.576 146.051H568.68V4.0376H636.434C654.232 4.0376 667.17 8.07591 675.246 16.1525C683.472 24.0796 687.585 35.8206 687.585 51.3755C687.585 63.0418 684.669 73.0628 678.836 81.4385C673.003 89.6647 665.3 94.8248 655.728 96.9187L655.503 97.5918C659.243 99.9848 663.356 103.948 667.843 109.482C672.33 115.016 676.742 121.074 681.079 127.655C685.566 134.086 689.53 140.144 692.97 145.827V146.051H651.241L627.011 110.155C624.917 107.014 623.197 104.771 621.851 103.425C620.654 102.079 619.159 101.256 617.364 100.957C615.719 100.658 613.026 100.508 609.287 100.508H604.576V146.051ZM630.6 33.2032H604.576V71.3427H630.6C638.079 71.3427 643.239 69.8471 646.081 66.8557C649.072 63.8644 650.568 59.0035 650.568 52.273C650.568 45.5424 649.072 40.6815 646.081 37.6902C643.239 34.6988 638.079 33.2032 630.6 33.2032Z" fill="#CDB4DD" fill-opacity="0.27"/>
<path d="M447.488 146.051V4.0376H552.933V33.2032H483.384V60.1252H543.735V89.2908H483.384V116.886H552.933V146.051H447.488Z" fill="#CDB4DD" fill-opacity="0.27"/>
<path d="M428.498 115.316V143.584C421.318 145.08 414.289 146.202 407.409 146.949C400.529 147.697 392.377 148.071 382.954 148.071C370.84 148.071 360.594 147.024 352.218 144.93C343.992 142.836 337.337 139.172 332.251 133.937C327.316 128.553 323.726 121 321.482 111.278C319.239 101.556 318.117 89.067 318.117 73.8112C318.117 59.1536 319.239 47.1135 321.482 37.6908C323.726 28.2681 327.316 21.0141 332.251 15.9288C337.337 10.6939 343.992 7.10432 352.218 5.15995C360.594 3.06601 370.84 2.01904 382.954 2.01904C392.377 2.01904 400.529 2.39296 407.409 3.14079C414.289 3.73906 421.318 4.86081 428.498 6.50605V35.6716L427.825 36.1203C421.543 34.6246 415.485 33.5777 409.652 32.9794C403.819 32.2316 396.64 31.8577 388.115 31.8577C381.234 31.8577 375.551 32.3811 371.064 33.4281C366.726 34.3255 363.286 36.1951 360.744 39.0369C358.201 41.8786 356.406 46.0665 355.359 51.6005C354.462 57.1345 354.013 64.538 354.013 73.8112C354.013 83.5331 354.462 91.3853 355.359 97.368C356.406 103.201 358.201 107.613 360.744 110.605C363.286 113.596 366.726 115.615 371.064 116.662C375.551 117.709 381.234 118.233 388.115 118.233C396.49 118.233 403.595 118.008 409.428 117.56C415.41 116.961 421.393 115.914 427.376 114.419L428.498 115.316Z" fill="#CDB4DD" fill-opacity="0.27"/>
<path d="M295.619 146.051H259.723V4.0376H295.619V146.051Z" fill="#CDB4DD" fill-opacity="0.27"/>
<path d="M243.971 115.54V146.051H140.77V4.0376H176.666V115.54H243.971Z" fill="#CDB4DD" fill-opacity="0.27"/>
<path d="M0.897402 109.483C7.47835 111.726 14.6576 113.521 22.435 114.867C30.3621 116.064 38.2144 116.662 45.9918 116.662C56.6111 116.662 64.4634 116.213 69.5486 115.316C74.7835 114.269 78.2235 112.699 79.8688 110.605C81.514 108.511 82.3366 105.819 82.3366 102.528C82.3366 99.6863 81.7383 97.4428 80.5418 95.7975C79.3453 94.1523 77.027 92.881 73.587 91.9836C70.1469 90.9366 65.0616 90.114 58.3311 89.5157L43.524 88.1696C32.456 87.1227 23.7064 84.8044 17.275 81.2148C10.9932 77.6252 6.50616 72.839 3.81396 66.8563C1.27132 60.7241 0 53.3953 0 44.87C0 34.6994 2.01915 26.4732 6.05746 20.1914C10.2453 13.9096 16.9759 9.34782 26.249 6.50605C35.5222 3.51471 47.8614 2.01904 63.2668 2.01904C83.3088 2.01904 99.836 4.63646 112.848 9.8713L112.175 40.383L111.502 41.2804C96.6951 36.0455 81.2149 33.4281 65.0616 33.4281C57.2841 33.4281 51.3015 33.8768 47.1136 34.7742C42.9257 35.5221 40.0092 36.7934 38.3639 38.5882C36.7187 40.383 35.8961 42.9256 35.8961 46.2161C35.8961 49.5066 36.4196 51.9744 37.4665 53.6196C38.6631 55.2649 40.9813 56.5362 44.4214 57.4336C47.8614 58.1814 52.8719 58.9293 59.4529 59.6771L73.587 61.2476C85.5523 62.5937 94.7507 64.9867 101.182 68.4268C107.613 71.8668 112.026 76.5034 114.419 82.3365C116.961 88.0201 118.233 94.9749 118.233 103.201C118.233 113.222 116.064 121.598 111.727 128.328C107.539 134.909 100.659 139.845 91.0863 143.135C81.514 146.426 68.726 148.071 52.7224 148.071C42.2527 148.071 32.8299 147.548 24.4542 146.501C16.0784 145.304 7.92705 143.734 0 141.789V110.156L0.897402 109.483Z" fill="#CDB4DD" fill-opacity="0.27"/>
</svg>
