<svg width="68" height="29" viewBox="0 0 68 29" fill="none" xmlns="http://www.w3.org/2000/svg">
<path d="M3.70972 11.0954L0 13.3702V3.74006C0 2.22351 0.222583 1.46523 1.4097 0.479465C2.35938 -0.309144 3.93231 0.0497741 4.60006 0.32781L13.0582 5.40828C13.6271 5.78741 14.8092 7.21298 14.9873 9.88212C15.1654 12.5513 13.4292 14.3307 12.5389 14.8868L5.04522 19.5881L7.19686 20.8013C9.24958 19.4617 13.5182 16.6915 14.1711 16.3275C14.8241 15.9635 14.9378 16.7825 14.9131 17.2374V19.5123C14.9724 21.5748 13.5529 23.1014 12.8356 23.607L8.68075 26.1851C6.7517 27.3984 4.37747 29.1424 2.96778 28.9907C0.593556 28.9301 0 26.7412 0 25.6543V16.7066C0 16.1 0.346241 15.7461 0.519361 15.645L9.94206 9.88212L3.70972 6.09073V11.0954Z" fill="#A937F4"/>
<path d="M42.0085 25.2903H39.582V15.6905H42.0085V19.7094C42.0287 19.7094 42.0439 19.7094 42.054 19.7094C42.1551 19.7094 42.2714 19.6285 42.4028 19.4667C42.5444 19.305 42.6708 19.1432 42.782 18.9814L44.8142 15.6905H47.453V15.736L45.7241 18.5265C45.5724 18.7792 45.4006 19.0522 45.2085 19.3454C45.0164 19.6285 44.8243 19.8812 44.6322 20.1037C44.4502 20.316 44.2884 20.4474 44.1469 20.498V20.5435C44.2884 20.6041 44.4502 20.7356 44.6322 20.9378C44.8243 21.1299 45.0164 21.3574 45.2085 21.6202C45.4107 21.873 45.6028 22.1257 45.7847 22.3785L47.8018 25.2448V25.2903H45.0113L43.1156 22.3785V22.3937C43.0549 22.2926 42.9589 22.1611 42.8275 21.9994C42.7061 21.8275 42.5747 21.6708 42.4332 21.5292C42.3017 21.3877 42.1855 21.3169 42.0844 21.3169C42.0641 21.3169 42.049 21.3169 42.0389 21.3169C42.0287 21.3169 42.0186 21.3169 42.0085 21.3169V25.2903Z" fill="#A937F4"/>
<path d="M28.645 20.4828C28.645 19.2594 28.7815 18.2888 29.0545 17.571C29.3376 16.8531 29.8178 16.3375 30.4952 16.0241C31.1827 15.7107 32.1382 15.554 33.3615 15.554C34.2816 15.554 35.0449 15.6399 35.6515 15.8118C36.2581 15.9836 36.7384 16.2617 37.0922 16.6459C37.4461 17.0301 37.6938 17.5406 37.8354 18.1776C37.987 18.8044 38.0628 19.5728 38.0628 20.4828C38.0628 21.4028 37.987 22.1813 37.8354 22.8183C37.6938 23.4451 37.4461 23.9506 37.0922 24.3348C36.7384 24.719 36.2581 24.9971 35.6515 25.1689C35.0449 25.3408 34.2816 25.4267 33.3615 25.4267C32.4415 25.4267 31.6781 25.3408 31.0715 25.1689C30.4649 24.9971 29.9846 24.719 29.6308 24.3348C29.2769 23.9506 29.0242 23.4451 28.8725 22.8183C28.7208 22.1813 28.645 21.4028 28.645 20.4828ZM33.3615 23.3036C34.0086 23.3036 34.4939 23.2227 34.8174 23.0609C35.1409 22.8991 35.3583 22.6161 35.4695 22.2116C35.5807 21.7971 35.6363 21.2208 35.6363 20.4828C35.6363 19.7548 35.5807 19.1886 35.4695 18.7842C35.3583 18.3798 35.1409 18.0967 34.8174 17.935C34.4939 17.7631 34.0086 17.6771 33.3615 17.6771C32.7246 17.6771 32.2393 17.7631 31.9056 17.935C31.5821 18.0967 31.3597 18.3798 31.2383 18.7842C31.1271 19.1886 31.0715 19.7548 31.0715 20.4828C31.0715 21.2208 31.1271 21.7971 31.2383 22.2116C31.3597 22.6161 31.5821 22.8991 31.9056 23.0609C32.2393 23.2227 32.7246 23.3036 33.3615 23.3036Z" fill="#A937F4"/>
<path d="M22.7298 25.2903V17.7378H20V15.6905H27.8861V17.7378H25.1563V25.2903H22.7298Z" fill="#A937F4"/>
<path d="M61.469 13.3095H59.0425V3.70966H63.6225C64.8256 3.70966 65.7002 3.98264 66.2461 4.5286C66.8022 5.06445 67.0802 5.85811 67.0802 6.90959C67.0802 7.6982 66.8831 8.3756 66.4888 8.94178C66.0945 9.49785 65.5738 9.84666 64.9267 9.9882L64.9116 10.0337C65.1643 10.1955 65.4424 10.4634 65.7457 10.8375C66.049 11.2116 66.3472 11.621 66.6404 12.0659C66.9437 12.5006 67.2117 12.9101 67.4442 13.2943V13.3095H64.6234L62.9855 10.883C62.844 10.6707 62.7277 10.519 62.6367 10.428C62.5558 10.337 62.4547 10.2814 62.3334 10.2612C62.2222 10.241 62.0402 10.2309 61.7874 10.2309H61.469V13.3095ZM63.2282 5.68118H61.469V8.25933H63.2282C63.7337 8.25933 64.0825 8.15822 64.2746 7.95602C64.4768 7.75381 64.5779 7.42522 64.5779 6.97025C64.5779 6.51529 64.4768 6.1867 64.2746 5.98449C64.0825 5.78228 63.7337 5.68118 63.2282 5.68118Z" fill="#111111"/>
<path d="M50.7043 13.3095V3.70966H57.8322V5.68118H53.1308V7.50105H57.2104V9.47257H53.1308V11.3379H57.8322V13.3095H50.7043Z" fill="#111111"/>
<path d="M49.4207 11.2318V13.1427C48.9354 13.2438 48.4602 13.3196 47.9951 13.3701C47.53 13.4207 46.979 13.446 46.3421 13.446C45.5231 13.446 44.8306 13.3752 44.2644 13.2336C43.7083 13.0921 43.2584 12.8444 42.9147 12.4905C42.581 12.1266 42.3384 11.616 42.1867 10.9588C42.0351 10.3016 41.9592 9.45742 41.9592 8.42616C41.9592 7.43535 42.0351 6.62146 42.1867 5.98451C42.3384 5.34755 42.581 4.8572 42.9147 4.51345C43.2584 4.15958 43.7083 3.91693 44.2644 3.7855C44.8306 3.64395 45.5231 3.57318 46.3421 3.57318C46.979 3.57318 47.53 3.59846 47.9951 3.64901C48.4602 3.68945 48.9354 3.76528 49.4207 3.87649V5.84802L49.3752 5.87835C48.9506 5.77724 48.5411 5.70647 48.1468 5.66603C47.7525 5.61548 47.2672 5.5902 46.6909 5.5902C46.2258 5.5902 45.8416 5.62559 45.5383 5.69636C45.2451 5.75702 45.0126 5.8834 44.8407 6.0755C44.6688 6.2676 44.5475 6.55069 44.4767 6.92477C44.4161 7.29886 44.3857 7.79932 44.3857 8.42616C44.3857 9.08334 44.4161 9.61413 44.4767 10.0185C44.5475 10.4129 44.6688 10.7111 44.8407 10.9133C45.0126 11.1155 45.2451 11.252 45.5383 11.3228C45.8416 11.3936 46.2258 11.4289 46.6909 11.4289C47.2571 11.4289 47.7373 11.4138 48.1316 11.3834C48.536 11.343 48.9404 11.2722 49.3449 11.1711L49.4207 11.2318Z" fill="#111111"/>
<path d="M40.4385 13.3095H38.012V3.70966H40.4385V13.3095Z" fill="#111111"/>
<path d="M36.9464 11.2469V13.3095H29.9702V3.70966H32.3967V11.2469H36.9464Z" fill="#111111"/>
<path d="M20.5157 10.8375C20.9606 10.9891 21.4459 11.1105 21.9716 11.2015C22.5075 11.2823 23.0383 11.3228 23.564 11.3228C24.2819 11.3228 24.8127 11.2925 25.1564 11.2318C25.5103 11.161 25.7428 11.0549 25.854 10.9133C25.9652 10.7718 26.0208 10.5898 26.0208 10.3674C26.0208 10.1753 25.9804 10.0236 25.8995 9.91239C25.8186 9.80118 25.6619 9.71524 25.4294 9.65457C25.1968 9.5838 24.8531 9.52819 24.3981 9.48775L23.3972 9.39676C22.649 9.32599 22.0576 9.16928 21.6228 8.92663C21.1982 8.68398 20.8949 8.36045 20.7129 7.95603C20.541 7.5415 20.4551 7.0461 20.4551 6.46981C20.4551 5.7823 20.5916 5.22623 20.8645 4.80159C21.1476 4.37696 21.6026 4.06859 22.2294 3.87649C22.8563 3.67428 23.6904 3.57318 24.7318 3.57318C26.0866 3.57318 27.2038 3.75011 28.0834 4.10398L28.0379 6.16649L27.9924 6.22716C26.9914 5.87329 25.945 5.69636 24.8531 5.69636C24.3274 5.69636 23.9229 5.72669 23.6398 5.78735C23.3568 5.83791 23.1596 5.92384 23.0484 6.04517C22.9372 6.16649 22.8816 6.33837 22.8816 6.5608C22.8816 6.78323 22.917 6.95005 22.9877 7.06126C23.0686 7.17248 23.2253 7.25841 23.4579 7.31908C23.6904 7.36963 24.0291 7.42018 24.474 7.47073L25.4294 7.57689C26.2382 7.66788 26.86 7.82965 27.2948 8.06219C27.7295 8.29473 28.0278 8.60815 28.1895 9.00246C28.3614 9.38665 28.4473 9.85678 28.4473 10.4129C28.4473 11.0902 28.3007 11.6564 28.0075 12.1114C27.7244 12.5563 27.2594 12.8899 26.6123 13.1123C25.9652 13.3348 25.1008 13.446 24.019 13.446C23.3113 13.446 22.6743 13.4106 22.1081 13.3398C21.5419 13.2589 20.9909 13.1528 20.4551 13.0213V10.883L20.5157 10.8375Z" fill="#111111"/>
</svg>
