<svg width="95" height="17" viewBox="0 0 95 17" fill="none" xmlns="http://www.w3.org/2000/svg">
<path d="M6.22 16.2C5.14 16.2 4.09333 16.0467 3.08 15.74C2.08 15.4333 1.28667 15.0267 0.7 14.52L1.6 12.5C2.17333 12.9533 2.87333 13.3267 3.7 13.62C4.54 13.9 5.38 14.04 6.22 14.04C7.26 14.04 8.03333 13.8733 8.54 13.54C9.06 13.2067 9.32 12.7667 9.32 12.22C9.32 11.82 9.17333 11.4933 8.88 11.24C8.6 10.9733 8.24 10.7667 7.8 10.62C7.36 10.4733 6.76 10.3067 6 10.12C4.93333 9.86667 4.06667 9.61333 3.4 9.36C2.74667 9.10667 2.18 8.71333 1.7 8.18C1.23333 7.63333 1 6.9 1 5.98C1 5.20667 1.20667 4.50667 1.62 3.88C2.04667 3.24 2.68 2.73333 3.52 2.36C4.37333 1.98667 5.41333 1.8 6.64 1.8C7.49333 1.8 8.33333 1.90667 9.16 2.12C9.98667 2.33333 10.7 2.64 11.3 3.04L10.48 5.06C9.86667 4.7 9.22667 4.42667 8.56 4.24C7.89333 4.05333 7.24667 3.96 6.62 3.96C5.59333 3.96 4.82667 4.13333 4.32 4.48C3.82667 4.82667 3.58 5.28667 3.58 5.86C3.58 6.26 3.72 6.58667 4 6.84C4.29333 7.09333 4.66 7.29333 5.1 7.44C5.54 7.58667 6.14 7.75333 6.9 7.94C7.94 8.18 8.79333 8.43333 9.46 8.7C10.1267 8.95333 10.6933 9.34667 11.16 9.88C11.64 10.4133 11.88 11.1333 11.88 12.04C11.88 12.8133 11.6667 13.5133 11.24 14.14C10.8267 14.7667 10.1933 15.2667 9.34 15.64C8.48667 16.0133 7.44667 16.2 6.22 16.2ZM17.7381 16.14C16.6315 16.14 15.7648 15.84 15.1381 15.24C14.5248 14.6267 14.2181 13.7667 14.2181 12.66V1.16H16.7181V12.48C16.7181 13.5467 17.2181 14.08 18.2181 14.08C18.5515 14.08 18.8515 14.0133 19.1181 13.88L19.2381 15.88C18.7715 16.0533 18.2715 16.14 17.7381 16.14ZM20.9369 5.32H23.4369V16H20.9369V5.32ZM22.1969 3.56C21.7435 3.56 21.3635 3.42 21.0569 3.14C20.7502 2.84667 20.5969 2.48667 20.5969 2.06C20.5969 1.63333 20.7502 1.28 21.0569 0.999999C21.3635 0.706666 21.7435 0.56 22.1969 0.56C22.6502 0.56 23.0302 0.699999 23.3369 0.979999C23.6435 1.24667 23.7969 1.58667 23.7969 2C23.7969 2.44 23.6435 2.81333 23.3369 3.12C23.0435 3.41333 22.6635 3.56 22.1969 3.56ZM31.6181 16.14C30.5115 16.14 29.5181 15.9067 28.6381 15.44C27.7581 14.9733 27.0715 14.3267 26.5781 13.5C26.0848 12.66 25.8381 11.7133 25.8381 10.66C25.8381 9.60667 26.0848 8.66667 26.5781 7.84C27.0715 7.01333 27.7515 6.36667 28.6181 5.9C29.4981 5.43333 30.4981 5.2 31.6181 5.2C32.6715 5.2 33.5915 5.41333 34.3781 5.84C35.1781 6.26667 35.7781 6.88 36.1781 7.68L34.2581 8.8C33.9515 8.30667 33.5648 7.94 33.0981 7.7C32.6448 7.44667 32.1448 7.32 31.5981 7.32C30.6648 7.32 29.8915 7.62667 29.2781 8.24C28.6648 8.84 28.3581 9.64667 28.3581 10.66C28.3581 11.6733 28.6581 12.4867 29.2581 13.1C29.8715 13.7 30.6515 14 31.5981 14C32.1448 14 32.6448 13.88 33.0981 13.64C33.5648 13.3867 33.9515 13.0133 34.2581 12.52L36.1781 13.64C35.7648 14.44 35.1581 15.06 34.3581 15.5C33.5715 15.9267 32.6581 16.14 31.6181 16.14ZM43.263 14.02C44.423 14.02 45.3896 13.6333 46.163 12.86L47.483 14.4C47.0163 14.9733 46.4163 15.4067 45.683 15.7C44.9496 15.9933 44.123 16.14 43.203 16.14C42.0296 16.14 40.9963 15.9067 40.103 15.44C39.2096 14.9733 38.5163 14.3267 38.023 13.5C37.543 12.66 37.303 11.7133 37.303 10.66C37.303 9.62 37.5363 8.68667 38.003 7.86C38.483 7.02 39.1363 6.36667 39.963 5.9C40.803 5.43333 41.7496 5.2 42.803 5.2C43.803 5.2 44.7096 5.42 45.523 5.86C46.3496 6.28667 47.003 6.90667 47.483 7.72C47.963 8.52 48.203 9.46 48.203 10.54L40.023 12.14C40.2763 12.7533 40.683 13.22 41.243 13.54C41.803 13.86 42.4763 14.02 43.263 14.02ZM42.803 7.2C41.883 7.2 41.1363 7.5 40.563 8.1C40.003 8.7 39.723 9.50667 39.723 10.52V10.54L45.763 9.38C45.5896 8.72667 45.2363 8.2 44.703 7.8C44.183 7.4 43.5496 7.2 42.803 7.2ZM52.9848 6.88C53.7048 5.76 54.9715 5.2 56.7848 5.2V7.58C56.5715 7.54 56.3782 7.52 56.2048 7.52C55.2315 7.52 54.4715 7.80667 53.9248 8.38C53.3782 8.94 53.1048 9.75333 53.1048 10.82V16H50.6048V5.32H52.9848V6.88ZM68.9633 5.48C67.6433 4.73333 66.2699 4.28 64.8433 4.12V16H62.2433V4.12C60.8033 4.28 59.4233 4.73333 58.1033 5.48L57.2033 3.48C58.1366 2.92 59.1366 2.5 60.2033 2.22C61.2833 1.94 62.3899 1.8 63.5233 1.8C64.6566 1.8 65.7633 1.94 66.8433 2.22C67.9233 2.5 68.9299 2.92 69.8633 3.48L68.9633 5.48ZM75.0533 16.14C73.9733 16.14 72.9999 15.9067 72.1333 15.44C71.2666 14.9733 70.5866 14.3267 70.0933 13.5C69.6133 12.66 69.3733 11.7133 69.3733 10.66C69.3733 9.60667 69.6133 8.66667 70.0933 7.84C70.5866 7.01333 71.2666 6.36667 72.1333 5.9C72.9999 5.43333 73.9733 5.2 75.0533 5.2C76.1466 5.2 77.1266 5.43333 77.9933 5.9C78.8599 6.36667 79.5333 7.01333 80.0133 7.84C80.5066 8.66667 80.7533 9.60667 80.7533 10.66C80.7533 11.7133 80.5066 12.66 80.0133 13.5C79.5333 14.3267 78.8599 14.9733 77.9933 15.44C77.1266 15.9067 76.1466 16.14 75.0533 16.14ZM75.0533 14C75.9733 14 76.7333 13.6933 77.3333 13.08C77.9333 12.4667 78.2333 11.66 78.2333 10.66C78.2333 9.66 77.9333 8.85333 77.3333 8.24C76.7333 7.62667 75.9733 7.32 75.0533 7.32C74.1333 7.32 73.3733 7.62667 72.7733 8.24C72.1866 8.85333 71.8933 9.66 71.8933 10.66C71.8933 11.66 72.1866 12.4667 72.7733 13.08C73.3733 13.6933 74.1333 14 75.0533 14ZM87.5039 11.42L85.6439 13.18V16H83.1439V1.16H85.6439V10.12L90.8239 5.32H93.8239L89.3639 9.8L94.2439 16H91.2039L87.5039 11.42Z" fill="#111111"/>
</svg>
