<svg width="14" height="14" viewBox="0 0 14 14" fill="none" xmlns="http://www.w3.org/2000/svg">
<path d="M6.69995 8.9502L8.94995 6.7002M8.94995 6.7002L6.69995 4.4502M8.94995 6.7002H0.699951M4.44995 3.13664V3.10034C4.44995 2.26026 4.44995 1.83991 4.61344 1.51904C4.75725 1.2368 4.98656 1.0075 5.2688 0.863686C5.58967 0.700195 6.01002 0.700195 6.8501 0.700195H10.3001C11.1402 0.700195 11.5596 0.700195 11.8805 0.863686C12.1627 1.0075 12.3928 1.2368 12.5366 1.51904C12.7 1.8396 12.7 2.25944 12.7 3.09788V10.3029C12.7 11.1413 12.7 11.5606 12.5366 11.8811C12.3928 12.1634 12.1627 12.3931 11.8805 12.5369C11.5599 12.7002 11.1407 12.7002 10.3023 12.7002H6.84763C6.0092 12.7002 5.58935 12.7002 5.2688 12.5369C4.98656 12.3931 4.75725 12.1631 4.61344 11.8809C4.44995 11.56 4.44995 11.1403 4.44995 10.3002V10.2627" stroke="#626187" stroke-width="1.4" stroke-linecap="round" stroke-linejoin="round"/>
</svg>
