<svg width="18" height="18" viewBox="0 0 18 18" fill="none" xmlns="http://www.w3.org/2000/svg">
<path fill-rule="evenodd" clip-rule="evenodd" d="M4.69963 3.0841C6.10822 2.05775 7.83707 1.56825 9.57464 1.7038C11.3122 1.83936 12.9442 2.59105 14.1766 3.82343C15.409 5.05581 16.1607 6.68784 16.2962 8.42541C16.4318 10.163 15.9423 11.8918 14.916 13.3004C13.8896 14.709 12.3939 15.7047 10.6984 16.1081C9.08144 16.4928 7.38418 16.3147 5.88539 15.6074L1.6806 17.0328C1.47784 17.1015 1.25365 17.0492 1.10227 16.8978C0.950885 16.7464 0.89856 16.5222 0.967291 16.3195L2.39264 12.1147C1.68539 10.6159 1.50727 8.91861 1.89196 7.30168C2.29534 5.60615 3.29104 4.11045 4.69963 3.0841ZM9.48715 2.82539C8.01689 2.7107 6.55402 3.12489 5.36213 3.99334C4.17025 4.86179 3.32773 6.12738 2.98641 7.56206C2.64509 8.99674 2.8274 10.5061 3.50051 11.8183C3.56997 11.9537 3.5816 12.1115 3.53274 12.2556L2.39854 15.6015L5.74443 14.4673C5.88856 14.4185 6.04634 14.4301 6.18176 14.4995C7.4939 15.1726 9.00331 15.355 10.438 15.0136C11.8727 14.6723 13.1383 13.8298 14.0067 12.6379C14.8752 11.446 15.2894 9.98316 15.1747 8.51291C15.06 7.04265 14.4239 5.66171 13.3811 4.61893C12.3383 3.57614 10.9574 2.94009 9.48715 2.82539Z" fill="#111111"/>
</svg>
