<svg width="23" height="23" viewBox="0 0 23 23" fill="none" xmlns="http://www.w3.org/2000/svg">
<path d="M9.20215 1.12891C9.96277 -0.376096 12.1124 -0.376103 12.873 1.12891C13.3877 2.14706 14.6327 2.55155 15.6475 2.03027C17.1472 1.26008 18.886 2.52315 18.6172 4.1875C18.435 5.31378 19.2046 6.37308 20.332 6.54785C21.9981 6.80642 22.662 8.85069 21.4658 10.0391C20.6565 10.8431 20.6566 12.152 21.4658 12.9561C22.662 14.1444 21.9981 16.1887 20.332 16.4473C19.2046 16.622 18.435 17.6813 18.6172 18.8076C18.8863 20.4722 17.1474 21.7352 15.6475 20.9648C14.6327 20.4436 13.3878 20.8482 12.873 21.8662C12.1124 23.3712 9.96277 23.3712 9.20215 21.8662C8.68749 20.8482 7.44247 20.4438 6.42773 20.9648C4.92779 21.7353 3.18882 20.4722 3.45801 18.8076C3.64019 17.6813 2.87062 16.622 1.74316 16.4473C0.0768041 16.1889 -0.586922 14.1445 0.609375 12.9561C1.4183 12.152 1.41841 10.843 0.609375 10.0391C-0.586933 8.8506 0.0767684 6.80617 1.74316 6.54785C2.87062 6.37308 3.64019 5.31378 3.45801 4.1875C3.18909 2.52304 4.92788 1.25984 6.42773 2.03027C7.44257 2.55151 8.68754 2.14714 9.20215 1.12891ZM16.0137 7.68848C15.8428 7.51762 15.5654 7.51762 15.3945 7.68848L9.28711 13.7959L6.67969 11.1885C6.50883 11.0178 6.23233 11.0177 6.06152 11.1885C5.89072 11.3593 5.89081 11.6358 6.06152 11.8066L8.97852 14.7236C9.14938 14.8943 9.42589 14.8944 9.59668 14.7236L16.0137 8.30664C16.1841 8.13582 16.1842 7.85923 16.0137 7.68848Z" fill="#D3DBED"/>
</svg>
