<svg width="18" height="18" viewBox="0 0 18 18" fill="none" xmlns="http://www.w3.org/2000/svg">
<path fill-rule="evenodd" clip-rule="evenodd" d="M3.75 2.8125C3.50136 2.8125 3.2629 2.91127 3.08709 3.08709C2.91127 3.2629 2.8125 3.50136 2.8125 3.75V5.25C2.8125 5.56066 2.56066 5.8125 2.25 5.8125C1.93934 5.8125 1.6875 5.56066 1.6875 5.25V3.75C1.6875 3.20299 1.9048 2.67839 2.29159 2.29159C2.67839 1.9048 3.20299 1.6875 3.75 1.6875H5.25C5.56066 1.6875 5.8125 1.93934 5.8125 2.25C5.8125 2.56066 5.56066 2.8125 5.25 2.8125H3.75ZM12.1875 2.25C12.1875 1.93934 12.4393 1.6875 12.75 1.6875H14.25C14.797 1.6875 15.3216 1.9048 15.7084 2.29159C16.0952 2.67839 16.3125 3.20299 16.3125 3.75V5.25C16.3125 5.56066 16.0607 5.8125 15.75 5.8125C15.4393 5.8125 15.1875 5.56066 15.1875 5.25V3.75C15.1875 3.50136 15.0887 3.2629 14.9129 3.08709C14.7371 2.91127 14.4986 2.8125 14.25 2.8125H12.75C12.4393 2.8125 12.1875 2.56066 12.1875 2.25ZM6 6.5625C5.89645 6.5625 5.8125 6.64645 5.8125 6.75V11.25C5.8125 11.3536 5.89645 11.4375 6 11.4375H12C12.1036 11.4375 12.1875 11.3536 12.1875 11.25V6.75C12.1875 6.64645 12.1036 6.5625 12 6.5625H6ZM4.6875 6.75C4.6875 6.02513 5.27513 5.4375 6 5.4375H12C12.7249 5.4375 13.3125 6.02513 13.3125 6.75V11.25C13.3125 11.9749 12.7249 12.5625 12 12.5625H6C5.27513 12.5625 4.6875 11.9749 4.6875 11.25V6.75ZM2.25 12.1875C2.56066 12.1875 2.8125 12.4393 2.8125 12.75V14.25C2.8125 14.4986 2.91127 14.7371 3.08709 14.9129C3.2629 15.0887 3.50136 15.1875 3.75 15.1875H5.25C5.56066 15.1875 5.8125 15.4393 5.8125 15.75C5.8125 16.0607 5.56066 16.3125 5.25 16.3125H3.75C3.20299 16.3125 2.67839 16.0952 2.29159 15.7084C1.9048 15.3216 1.6875 14.797 1.6875 14.25V12.75C1.6875 12.4393 1.93934 12.1875 2.25 12.1875ZM15.75 12.1875C16.0607 12.1875 16.3125 12.4393 16.3125 12.75V14.25C16.3125 14.797 16.0952 15.3216 15.7084 15.7084C15.3216 16.0952 14.797 16.3125 14.25 16.3125H12.75C12.4393 16.3125 12.1875 16.0607 12.1875 15.75C12.1875 15.4393 12.4393 15.1875 12.75 15.1875H14.25C14.4986 15.1875 14.7371 15.0887 14.9129 14.9129C15.0887 14.7371 15.1875 14.4986 15.1875 14.25V12.75C15.1875 12.4393 15.4393 12.1875 15.75 12.1875Z" fill="#111111"/>
</svg>
