<svg width="51" height="50" viewBox="0 0 51 50" fill="none" xmlns="http://www.w3.org/2000/svg">
<path d="M0.5 25C0.5 11.1929 11.6929 0 25.5 0C39.3071 0 50.5 11.1929 50.5 25C50.5 38.8071 39.3071 50 25.5 50C11.6929 50 0.5 38.8071 0.5 25Z" fill="#E2EEF3"/>
<path fill-rule="evenodd" clip-rule="evenodd" d="M19.5 21.0625C18.9822 21.0625 18.5625 21.4822 18.5625 22V28C18.5625 28.5178 18.9822 28.9375 19.5 28.9375H27C27.5178 28.9375 27.9375 28.5178 27.9375 28V25.7577C27.9374 25.7522 27.9374 25.7468 27.9375 25.7413V23.8857C27.9374 23.8789 27.9374 23.8721 27.9375 23.8654V22C27.9375 21.4822 27.5178 21.0625 27 21.0625H19.5ZM29.0625 22.8956V22C29.0625 20.8609 28.1391 19.9375 27 19.9375H19.5C18.3609 19.9375 17.4375 20.8609 17.4375 22V28C17.4375 29.1391 18.3609 30.0625 19.5 30.0625H27C28.1391 30.0625 29.0625 29.1391 29.0625 28V26.801L32.1052 28.8295C32.2464 28.9235 32.4108 28.9776 32.5802 28.9857C32.7496 28.9938 32.918 28.9558 33.0675 28.8758C33.217 28.7958 33.342 28.6767 33.4292 28.5312C33.5163 28.3857 33.5624 28.2194 33.5625 28.0498V21.9027C33.5625 21.9026 33.5625 21.9027 33.5625 21.9027C33.5625 21.7378 33.519 21.5756 33.4365 21.4329C33.3538 21.2901 33.235 21.1716 33.092 21.0895C32.949 21.0073 32.7868 20.9643 32.6218 20.9649C32.4569 20.9655 32.295 21.0095 32.1525 21.0927L29.0625 22.8956ZM29.0625 24.198V25.449L32.4375 27.699V22.2289L29.0625 24.198ZM32.7195 22.0643C32.7194 22.0644 32.7196 22.0643 32.7195 22.0643V22.0643Z" fill="#8F96A5"/>
</svg>
