<svg width="18" height="18" viewBox="0 0 18 18" fill="none" xmlns="http://www.w3.org/2000/svg">
<g clip-path="url(#clip0_1041_12457)">
<path fill-rule="evenodd" clip-rule="evenodd" d="M16.8978 1.10227C17.0505 1.25506 17.1023 1.48188 17.0309 1.68584L11.7809 16.6858C11.7047 16.9035 11.5034 17.0526 11.2729 17.062C11.0425 17.0714 10.8297 16.9392 10.736 16.7285L7.82385 10.1762L1.27155 7.26403C1.06079 7.17036 0.928569 6.95753 0.93797 6.72709C0.947372 6.49664 1.09649 6.29529 1.31418 6.2191L16.3142 0.969095C16.5181 0.897711 16.745 0.949472 16.8978 1.10227ZM8.92092 9.87459L11.1878 14.975L15.1548 3.64071L8.92092 9.87459ZM14.3593 2.84522L3.02498 6.81223L8.12543 9.0791L14.3593 2.84522Z" fill="#111111"/>
</g>
<defs>
<clipPath id="clip0_1041_12457">
<rect width="18" height="18" fill="white"/>
</clipPath>
</defs>
</svg>
