<svg width="20" height="20" viewBox="0 0 20 20" fill="none" xmlns="http://www.w3.org/2000/svg">
<path fill-rule="evenodd" clip-rule="evenodd" d="M9.99765 1.87501L10 1.875C11.607 1.875 13.1779 2.35153 14.514 3.24431C15.8502 4.1371 16.8916 5.40605 17.5065 6.8907C18.1215 8.37535 18.2824 10.009 17.9689 11.5851C17.6554 13.1612 16.8815 14.6089 15.7452 15.7452C14.6089 16.8815 13.1612 17.6554 11.5851 17.9689C10.009 18.2824 8.37535 18.1215 6.8907 17.5065C5.40605 16.8916 4.1371 15.8502 3.24431 14.514C2.35152 13.1779 1.875 11.607 1.875 10C1.875 9.65483 2.15482 9.375 2.5 9.375C2.84518 9.375 3.125 9.65483 3.125 10C3.125 11.3598 3.52821 12.689 4.28365 13.8195C5.03908 14.9501 6.11281 15.8313 7.36905 16.3517C8.62529 16.872 10.0076 17.0082 11.3412 16.7429C12.6749 16.4776 13.8999 15.8228 14.8614 14.8614C15.8228 13.8999 16.4776 12.6749 16.7429 11.3413C17.0082 10.0076 16.872 8.6253 16.3517 7.36906C15.8313 6.11281 14.9501 5.03909 13.8195 4.28365C12.6893 3.52843 11.3605 3.12524 10.0012 3.125C8.06791 3.13258 6.21229 3.8864 4.82147 5.22908L4.00888 6.04167H6.66667C7.01184 6.04167 7.29167 6.32149 7.29167 6.66667C7.29167 7.01185 7.01184 7.29167 6.66667 7.29167H2.5C2.15482 7.29167 1.875 7.01185 1.875 6.66667V2.5C1.875 2.15483 2.15482 1.875 2.5 1.875C2.84518 1.875 3.125 2.15483 3.125 2.5V5.15779L3.94887 4.33392C5.5723 2.7645 7.73966 1.8835 9.99765 1.87501Z" fill="#A937F4"/>
</svg>
