<svg width="11" height="14" viewBox="0 0 11 14" fill="none" xmlns="http://www.w3.org/2000/svg">
<path d="M3.36662 10.0335H7.36662M3.36662 8.03353H7.36662M6.03354 0.700776C5.96985 0.700195 5.8982 0.700195 5.81643 0.700195H2.83341C2.08668 0.700195 1.71303 0.700195 1.42782 0.845521C1.17693 0.973352 0.973107 1.17718 0.845276 1.42806C0.699951 1.71328 0.699951 2.08692 0.699951 2.83366V10.567C0.699951 11.3137 0.699951 11.6869 0.845276 11.9721C0.973108 12.223 1.17693 12.4272 1.42782 12.555C1.71275 12.7002 2.08595 12.7002 2.83124 12.7002L7.90201 12.7002C8.64729 12.7002 9.01994 12.7002 9.30488 12.555C9.55576 12.4272 9.76027 12.223 9.8881 11.9721C10.0333 11.6872 10.0333 11.3145 10.0333 10.5692V4.91732C10.0333 4.83554 10.0332 4.76388 10.0326 4.7002M6.03354 0.700776C6.22384 0.702512 6.34376 0.709573 6.45874 0.737176C6.59478 0.769838 6.72519 0.823705 6.84448 0.89681C6.979 0.97924 7.09449 1.09474 7.32495 1.3252L9.40861 3.40885C9.63921 3.63945 9.75386 3.75444 9.83632 3.88899C9.90942 4.00829 9.96351 4.13837 9.99617 4.27441C10.0238 4.38939 10.0309 4.50989 10.0326 4.7002M6.03354 0.700776L6.03328 2.567C6.03328 3.31374 6.03328 3.68696 6.17861 3.97218C6.30644 4.22306 6.51027 4.42718 6.76115 4.55501C7.04608 4.7002 7.41929 4.7002 8.16456 4.7002H10.0326" stroke="#626187" stroke-width="1.4" stroke-linecap="round" stroke-linejoin="round"/>
</svg>
