<svg width="40" height="40" viewBox="0 0 40 40" fill="none" xmlns="http://www.w3.org/2000/svg">
<path d="M0 12C0 5.37258 5.37258 0 12 0H28C34.6274 0 40 5.37258 40 12V28C40 34.6274 34.6274 40 28 40H12C5.37258 40 0 34.6274 0 28V12Z" fill="#225DFF"/>
<g clip-path="url(#clip0_224_12747)">
<path fill-rule="evenodd" clip-rule="evenodd" d="M27.8978 12.1023C28.0505 12.2551 28.1023 12.4819 28.0309 12.6858L22.7809 27.6858C22.7047 27.9035 22.5034 28.0526 22.2729 28.062C22.0425 28.0714 21.8297 27.9392 21.736 27.7285L18.8238 21.1762L12.2715 18.264C12.0608 18.1704 11.9286 17.9575 11.938 17.7271C11.9474 17.4966 12.0965 17.2953 12.3142 17.2191L27.3142 11.9691C27.5181 11.8977 27.745 11.9495 27.8978 12.1023ZM19.9209 20.8746L22.1878 25.975L26.1548 14.6407L19.9209 20.8746ZM25.3593 13.8452L14.025 17.8122L19.1254 20.0791L25.3593 13.8452Z" fill="white"/>
</g>
<defs>
<clipPath id="clip0_224_12747">
<rect width="18" height="18" fill="white" transform="translate(11 11)"/>
</clipPath>
</defs>
</svg>
