<svg width="20" height="20" viewBox="0 0 20 20" fill="none" xmlns="http://www.w3.org/2000/svg">
<path d="M11.89 2.03415C13.4519 1.2148 15.3857 1.8116 16.2079 3.36754C17.0302 4.9231 16.4301 6.84808 14.8682 7.66705L13.5837 8.34661C14.6901 8.38724 15.7453 8.99895 16.2979 10.0446C17.1202 11.6001 16.5216 13.5251 14.9582 14.3441L8.10983 17.9659C6.54791 18.7852 4.61414 18.1884 3.79188 16.6325C2.96963 15.0766 3.56965 13.152 5.13156 12.333L6.41606 11.6534C5.30972 11.6128 4.25449 11.0011 3.70188 9.95548C2.87963 8.39991 3.47965 6.47494 5.04156 5.65596L11.89 2.03415ZM8.19316 7.43519L12.3385 10.011L8.19316 12.5745V7.43519Z" fill="#FF0000"/>
<path d="M7.96753 7.13336V12.8779L12.6309 10.0125L7.96753 7.13336Z" fill="white"/>
</svg>
