<svg width="12" height="12" viewBox="0 0 12 12" fill="none" xmlns="http://www.w3.org/2000/svg">
<path d="M10.7504 6.00016C10.7504 3.37686 8.62347 1.25009 6.00019 1.25C3.37684 1.25 1.25003 3.37681 1.25003 6.00016C1.25012 8.62344 3.37689 10.7503 6.00019 10.7503V12.0003L5.69095 11.9922C2.6231 11.8365 0.163606 9.37651 0.00816854 6.30859L3.05176e-05 6.00016C3.05176e-05 2.68645 2.68648 0 6.00019 0L6.30862 0.00813802C9.47891 0.168763 12.0004 2.78996 12.0004 6.00016L11.9922 6.30859C11.8316 9.47884 9.21033 12.0002 6.00019 12.0003V10.7503C8.62342 10.7502 10.7503 8.62339 10.7504 6.00016Z" fill="#A937F4"/>
</svg>
