<svg width="12" height="12" viewBox="0 0 12 12" fill="none" xmlns="http://www.w3.org/2000/svg">
<path d="M10.7503 6.00016C10.7503 3.37686 8.62344 1.25009 6.00016 1.25C3.37681 1.25 1.25 3.37681 1.25 6.00016C1.25009 8.62344 3.37686 10.7503 6.00016 10.7503V12.0003L5.69092 11.9922C2.62306 11.8365 0.163576 9.37651 0.00813802 6.30859L0 6.00016C0 2.68645 2.68645 0 6.00016 0L6.30859 0.00813802C9.47888 0.168763 12.0003 2.78996 12.0003 6.00016L11.9922 6.30859C11.8316 9.47884 9.2103 12.0002 6.00016 12.0003V10.7503C8.62339 10.7502 10.7502 8.62339 10.7503 6.00016Z" fill="#225DFF"/>
</svg>
