<svg width="14" height="12" viewBox="0 0 14 12" fill="none" xmlns="http://www.w3.org/2000/svg">
<path d="M11.3667 5.36686C11.3667 2.78953 9.2774 0.700195 6.70007 0.700195C4.12274 0.700195 2.03341 2.78953 2.03341 5.36686M9.36674 7.7002V9.03353C9.36674 9.3433 9.36674 9.49818 9.39236 9.62698C9.49757 10.1559 9.91106 10.5696 10.44 10.6748C10.5688 10.7004 10.7236 10.7004 11.0334 10.7004C11.3432 10.7004 11.4981 10.7004 11.6269 10.6748C12.1558 10.5696 12.5691 10.1559 12.6744 9.62698C12.7 9.49818 12.7001 9.3433 12.7001 9.03353V7.7002C12.7001 7.39043 12.7 7.23524 12.6744 7.10645C12.5691 6.57752 12.1558 6.16436 11.6269 6.05915C11.4981 6.03353 11.3432 6.03353 11.0334 6.03353C10.7236 6.03353 10.5688 6.03353 10.44 6.05915C9.91106 6.16436 9.49757 6.57752 9.39236 7.10645C9.36674 7.23524 9.36674 7.39043 9.36674 7.7002ZM4.03341 7.7002V9.03353C4.03341 9.3433 4.03331 9.49818 4.00769 9.62698C3.90248 10.1559 3.48909 10.5696 2.96016 10.6748C2.83137 10.7004 2.67654 10.7004 2.36677 10.7004C2.057 10.7004 1.90211 10.7004 1.77332 10.6748C1.24439 10.5696 0.830902 10.1559 0.725693 9.62698C0.700073 9.49818 0.700073 9.3433 0.700073 9.03353V7.7002C0.700073 7.39043 0.700073 7.23524 0.725693 7.10645C0.830902 6.57752 1.24439 6.16436 1.77332 6.05915C1.90211 6.03353 2.057 6.03353 2.36677 6.03353C2.67654 6.03353 2.83137 6.03353 2.96016 6.05915C3.48909 6.16436 3.90248 6.57752 4.00769 7.10645C4.03331 7.23524 4.03341 7.39043 4.03341 7.7002Z" stroke="#626187" stroke-width="1.4" stroke-linecap="round" stroke-linejoin="round"/>
</svg>
