<svg width="20" height="20" viewBox="0 0 20 20" fill="none" xmlns="http://www.w3.org/2000/svg">
<path d="M14.6875 1.66669H5.31246C3.29892 1.66669 1.66663 3.29898 1.66663 5.31252V14.6875C1.66663 16.7011 3.29892 18.3334 5.31246 18.3334H14.6875C16.701 18.3334 18.3333 16.7011 18.3333 14.6875V5.31252C18.3333 3.29898 16.701 1.66669 14.6875 1.66669Z" fill="#111111"/>
<path d="M14.3804 6.18484C14.2896 6.13833 14.2011 6.08734 14.1154 6.03207C13.8662 5.86887 13.6377 5.67657 13.4348 5.45932C12.9273 4.88407 12.7377 4.30048 12.6679 3.8919H12.6707C12.6124 3.55274 12.6365 3.33331 12.6401 3.33331H10.3283V12.1879C10.3283 12.3067 10.3283 12.4242 10.3233 12.5404C10.3233 12.5548 10.3219 12.5681 10.3211 12.5837C10.3211 12.5901 10.3211 12.5967 10.3197 12.6034C10.3197 12.6051 10.3197 12.6067 10.3197 12.6084C10.2953 12.9261 10.1925 13.233 10.0203 13.5021C9.84803 13.7712 9.61169 13.9943 9.33202 14.1517C9.04053 14.3159 8.71086 14.4021 8.37549 14.4016C7.29839 14.4016 6.42545 13.5317 6.42545 12.4573C6.42545 11.3829 7.29839 10.513 8.37549 10.513C8.57939 10.5128 8.78203 10.5446 8.97589 10.6071L8.97869 8.27557C8.39019 8.20027 7.79231 8.24659 7.2228 8.41161C6.65326 8.57665 6.12446 8.85681 5.66971 9.23441C5.27126 9.57733 4.93628 9.9865 4.67984 10.4435C4.58224 10.6102 4.21404 11.2799 4.16946 12.3667C4.14142 12.9837 4.32846 13.6228 4.41763 13.8869V13.8925C4.47372 14.0481 4.69105 14.5789 5.04523 15.0263C5.33081 15.3853 5.66822 15.7006 6.04661 15.9621V15.9566L6.05222 15.9621C7.17138 16.7154 8.41224 16.666 8.41224 16.666C8.62704 16.6574 9.34659 16.666 10.1637 16.2824C11.0701 15.8571 11.586 15.2235 11.586 15.2235C11.9157 14.845 12.1778 14.4136 12.3611 13.9478C12.5703 13.4031 12.6401 12.7498 12.6401 12.4887V7.79115C12.6682 7.80781 13.0417 8.05251 13.0417 8.05251C13.0417 8.05251 13.5798 8.39416 14.4194 8.61667C15.0218 8.77498 15.8333 8.80831 15.8333 8.80831V6.53509C15.5489 6.56564 14.9716 6.47677 14.3804 6.18484Z" fill="white"/>
</svg>
