<svg width="20" height="20" viewBox="0 0 20 20" fill="none" xmlns="http://www.w3.org/2000/svg">
<path d="M0.404294 0H0.485815C4.21778 0.644869 7.94428 1.32099 11.6649 2.02829L13.9144 2.4481L14.6059 2.57566C15.0096 2.65026 15.1958 2.65552 15.5185 2.94429C15.8255 3.219 16.1245 3.49749 16.4229 3.78203C16.9273 4.26369 17.4288 4.74832 17.9275 5.23592L18.497 5.77889C18.6256 5.89963 18.7884 6.03548 18.8912 6.17606C18.9943 6.3169 19.0345 6.52983 19.0112 6.69978C18.9972 6.77837 18.7926 7.0627 18.7348 7.13578C18.4172 7.5369 18.0928 7.93488 17.7696 8.33164L16.0476 10.4352L11.0141 16.5572L9.14762 18.8223C9.01704 18.9805 8.88191 19.1441 8.75268 19.3026C8.59609 19.4946 8.3256 19.8654 8.12332 20H8.01243C7.75307 19.868 7.67614 19.5062 7.58081 19.2469C7.50788 19.051 7.43324 18.8557 7.35689 18.661C7.05789 17.9021 6.75265 17.1456 6.44119 16.3916L2.07909 5.89904C1.60534 4.7537 1.13967 3.60503 0.682114 2.45312C0.531604 2.07137 0.383447 1.6887 0.237663 1.30513C0.162103 1.10517 0.0834505 0.900332 0.0154225 0.697902C-0.00399353 0.619161 -0.00517851 0.48489 0.0124445 0.407128C0.0412795 0.279898 0.137473 0.134737 0.248625 0.0654989C0.306583 0.0293962 0.340744 0.0192898 0.404294 0ZM7.97599 16.8002C8.01798 16.5018 8.0495 16.182 8.08427 15.8813L8.68796 10.7057L8.8875 8.99524C8.91975 8.71878 8.96627 8.39541 8.98819 8.12331L2.00088 2.19437C2.16313 2.62056 2.36018 3.07663 2.534 3.50077L3.51897 5.90689L6.56341 13.344L7.49296 15.6141C7.64696 15.9901 7.83657 16.4234 7.97599 16.8002ZM14.9086 4.10188C13.7899 5.05159 12.64 5.97053 11.5174 6.91599C11.3633 7.04576 11.2037 7.1804 11.0459 7.30521C11.6025 7.19004 12.1708 7.10492 12.729 6.99588C12.8176 6.97859 12.9173 6.95868 13.0062 6.94646C14.3881 6.68356 15.7942 6.45616 17.1719 6.18665L15.6765 4.80911C15.4241 4.5766 15.1643 4.32889 14.9086 4.10188ZM2.90296 1.64893C3.1902 1.87004 3.49666 2.1316 3.77877 2.36274L5.40608 3.69656L9.54839 7.09205C10.1831 6.54082 10.8392 6.01005 11.4772 5.46236C11.5702 5.38252 11.6679 5.29771 11.7639 5.22189L12.9953 4.18201C13.1875 4.01996 13.4619 3.77366 13.6564 3.6292L6.17815 2.2502L3.91981 1.8336L3.24381 1.70843C3.17068 1.69486 2.9713 1.65334 2.90296 1.64893ZM10.1512 8.52292C10.0536 9.27683 9.96999 10.0454 9.88109 10.8012L9.39248 14.9519L9.23473 16.2851C9.22693 16.3508 9.17302 16.7378 9.18139 16.7813L9.19342 16.7718C9.84739 15.9798 16.9292 7.47006 16.9374 7.43175L16.9098 7.43518L12.3539 8.16917L10.9102 8.4018C10.6641 8.44142 10.397 8.48978 10.1512 8.52292Z" fill="#FF0608"/>
</svg>
