<svg width="15" height="17" viewBox="0 0 15 17" fill="none" xmlns="http://www.w3.org/2000/svg">
<path fill-rule="evenodd" clip-rule="evenodd" d="M7.29167 1.25C5.33566 1.25 3.75 2.83566 3.75 4.79167C3.75 6.74767 5.33566 8.33333 7.29167 8.33333C9.24768 8.33333 10.8333 6.74767 10.8333 4.79167C10.8333 2.83566 9.24768 1.25 7.29167 1.25ZM9.89618 8.81435C11.2125 7.96031 12.0833 6.47768 12.0833 4.79167C12.0833 2.1453 9.93803 0 7.29167 0C4.6453 0 2.5 2.1453 2.5 4.79167C2.5 6.47768 3.37079 7.96031 4.68715 8.81435C3.73881 9.17702 2.86748 9.73721 2.13568 10.469C0.768227 11.8365 0 13.6911 0 15.625C0 15.9702 0.279822 16.25 0.625 16.25C0.970178 16.25 1.25 15.9702 1.25 15.625C1.25 14.0227 1.88653 12.4859 3.01956 11.3529C4.1526 10.2199 5.68932 9.58333 7.29167 9.58333C8.89402 9.58333 10.4307 10.2199 11.5638 11.3529C12.6968 12.4859 13.3333 14.0227 13.3333 15.625C13.3333 15.9702 13.6132 16.25 13.9583 16.25C14.3035 16.25 14.5833 15.9702 14.5833 15.625C14.5833 13.6911 13.8151 11.8365 12.4477 10.469C11.7159 9.73721 10.8445 9.17702 9.89618 8.81435Z" fill="#111111"/>
</svg>
