<svg width="24" height="25" viewBox="0 0 24 25" fill="none" xmlns="http://www.w3.org/2000/svg">
<path fill-rule="evenodd" clip-rule="evenodd" d="M4 7.25C3.30964 7.25 2.75 7.80964 2.75 8.5V16.5C2.75 17.1904 3.30964 17.75 4 17.75H14C14.6904 17.75 15.25 17.1904 15.25 16.5V13.5102C15.2499 13.503 15.2499 13.4957 15.25 13.4884V11.0142C15.2498 11.0052 15.2498 10.9962 15.25 10.9872V8.5C15.25 7.80964 14.6904 7.25 14 7.25H4ZM16.75 9.69408V8.5C16.75 6.98122 15.5188 5.75 14 5.75H4C2.48122 5.75 1.25 6.98122 1.25 8.5V16.5C1.25 18.0188 2.48122 19.25 4 19.25H14C15.5188 19.25 16.75 18.0188 16.75 16.5V14.9014L20.807 17.606C20.9952 17.7313 21.2144 17.8035 21.4403 17.8143C21.6661 17.8251 21.8907 17.7745 22.09 17.6677C22.2893 17.561 22.456 17.4022 22.5722 17.2083C22.6884 17.0143 22.7499 16.7925 22.75 16.5664V8.37022C22.75 8.37015 22.75 8.3703 22.75 8.37022C22.75 8.15036 22.6921 7.93415 22.5819 7.74384C22.4718 7.55347 22.3134 7.39553 22.1227 7.28597C21.9319 7.17641 21.7157 7.11911 21.4958 7.11986C21.2758 7.12061 21.06 7.17937 20.87 7.29022L16.75 9.69408ZM16.75 11.4307V13.0986L21.25 16.0986V8.80516L16.75 11.4307ZM21.626 8.58578C21.6258 8.58587 21.6262 8.58569 21.626 8.58578V8.58578Z" fill="#109A6A"/>
<path d="M6 12.5C6.42857 12.98 7.14286 13.94 8 14.9L12 10.1" stroke="#109A6A" stroke-width="1.5" stroke-linecap="round" stroke-linejoin="round"/>
</svg>
