<svg width="20" height="20" viewBox="0 0 20 20" fill="none" xmlns="http://www.w3.org/2000/svg">
<path d="M1.66663 9.66669C1.66663 5.89502 1.66663 4.01002 2.83829 2.83835C4.00996 1.66669 5.89496 1.66669 9.66663 1.66669H10.3333C14.105 1.66669 15.99 1.66669 17.1616 2.83835C18.3333 4.01002 18.3333 5.89502 18.3333 9.66669V10.3334C18.3333 14.105 18.3333 15.99 17.1616 17.1617C15.99 18.3334 14.105 18.3334 10.3333 18.3334H9.66663C5.89496 18.3334 4.00996 18.3334 2.83829 17.1617C1.66663 15.99 1.66663 14.105 1.66663 10.3334V9.66669Z" fill="#0077FF"/>
<path d="M11.25 1.66669C8.11032 1.67669 6.43935 1.78004 5.36163 2.83692C4.16663 4.00882 4.16663 5.8942 4.16663 9.66662V10.3334C4.16663 14.1058 4.16663 15.9912 5.36163 17.1631C6.43935 18.22 8.11032 18.3234 11.25 18.3334C14.3896 18.3234 16.0606 18.22 17.1383 17.1631C18.3333 15.9912 18.3333 14.1058 18.3333 10.3334V9.66662C18.3333 5.8942 18.3333 4.00882 17.1383 2.83692C16.0606 1.78171 14.3896 1.67836 11.25 1.66669Z" fill="#FF0000"/>
<path d="M13.4338 8.59371C14.3159 9.05562 14.7551 9.28658 14.9033 9.58714C15.0323 9.84974 15.0323 10.1503 14.9033 10.4129C14.7551 10.715 14.3141 10.9444 13.4338 11.4063L11.0196 12.6719C10.1375 13.1338 9.69826 13.3647 9.33568 13.3299C9.02017 13.2999 8.7343 13.1496 8.54778 12.917C8.33337 12.6497 8.33337 12.1878 8.33337 11.2655V8.7345C8.33337 7.81067 8.33337 7.34875 8.54778 7.08299C8.7343 6.85045 9.02017 6.70017 9.33568 6.67011C9.69652 6.63531 10.1375 6.86627 11.0196 7.32819L13.4338 8.59371Z" fill="white"/>
</svg>
