<svg width="42" height="42" viewBox="0 0 42 42" fill="none" xmlns="http://www.w3.org/2000/svg">
<rect width="42" height="42" rx="12" fill="#60A5FA"/>
<path d="M13.5 20.1667V24.1669C13.5 25.1003 13.5 25.5667 13.6817 25.9233C13.8414 26.2369 14.0962 26.4921 14.4098 26.6519C14.766 26.8334 15.2325 26.8334 16.1641 26.8334H25.8359C26.7675 26.8334 27.2333 26.8334 27.5895 26.6519C27.9031 26.4921 28.1587 26.2369 28.3185 25.9233C28.5 25.5671 28.5 25.1013 28.5 24.1697V20.1667M13.5 20.1667V18.5M13.5 20.1667H28.5M13.5 18.5V17.8335C13.5 16.9001 13.5 16.433 13.6817 16.0765C13.8414 15.7629 14.0962 15.5081 14.4098 15.3483C14.7664 15.1667 15.2334 15.1667 16.1668 15.1667H25.8335C26.7669 15.1667 27.233 15.1667 27.5895 15.3483C27.9031 15.5081 28.1587 15.7629 28.3185 16.0765C28.5 16.4327 28.5 16.8992 28.5 17.8308V18.5M13.5 18.5H28.5M16.8333 23.5H20.1667M28.5 20.1667V18.5" stroke="#111111" stroke-width="1.4" stroke-linecap="round" stroke-linejoin="round"/>
</svg>
