<svg width="50" height="50" viewBox="0 0 50 50" fill="none" xmlns="http://www.w3.org/2000/svg">
<path d="M0 25C0 11.1929 11.1929 0 25 0C38.8071 0 50 11.1929 50 25C50 38.8071 38.8071 50 25 50C11.1929 50 0 38.8071 0 25Z" fill="#E2EEF3"/>
<path fill-rule="evenodd" clip-rule="evenodd" d="M19.75 18.8125C19.5014 18.8125 19.2629 18.9113 19.0871 19.0871C18.9113 19.2629 18.8125 19.5014 18.8125 19.75V30.25C18.8125 30.4986 18.9113 30.7371 19.0871 30.9129C19.2629 31.0887 19.5014 31.1875 19.75 31.1875H30.25C30.4986 31.1875 30.7371 31.0887 30.9129 30.9129C31.0887 30.7371 31.1875 30.4986 31.1875 30.25V22.75C31.1875 22.5014 31.0887 22.2629 30.9129 22.0871C30.7371 21.9113 30.4986 21.8125 30.25 21.8125H21.25C20.9393 21.8125 20.6875 21.5607 20.6875 21.25C20.6875 20.9393 20.9393 20.6875 21.25 20.6875H30.25C30.797 20.6875 31.3216 20.9048 31.7084 21.2916C32.0952 21.6784 32.3125 22.203 32.3125 22.75V30.25C32.3125 30.797 32.0952 31.3216 31.7084 31.7084C31.3216 32.0952 30.797 32.3125 30.25 32.3125H19.75C19.203 32.3125 18.6784 32.0952 18.2916 31.7084C17.9048 31.3216 17.6875 30.797 17.6875 30.25V19.75C17.6875 19.203 17.9048 18.6784 18.2916 18.2916C18.6784 17.9048 19.203 17.6875 19.75 17.6875H30.25C30.5607 17.6875 30.8125 17.9393 30.8125 18.25C30.8125 18.5607 30.5607 18.8125 30.25 18.8125H19.75ZM28.1875 26.5C28.1875 26.1893 28.4393 25.9375 28.75 25.9375H28.7575C29.0682 25.9375 29.32 26.1893 29.32 26.5C29.32 26.8107 29.0682 27.0625 28.7575 27.0625H28.75C28.4393 27.0625 28.1875 26.8107 28.1875 26.5Z" fill="#8F96A5"/>
</svg>
