<svg width="50" height="50" viewBox="0 0 50 50" fill="none" xmlns="http://www.w3.org/2000/svg">
<rect width="50" height="50" rx="16" fill="#FFC14F"/>
<path fill-rule="evenodd" clip-rule="evenodd" d="M17 19.75C16.3096 19.75 15.75 20.3096 15.75 21V29C15.75 29.6904 16.3096 30.25 17 30.25H27C27.6904 30.25 28.25 29.6904 28.25 29V26.0102C28.2499 26.003 28.2499 25.9957 28.25 25.9884V23.5142C28.2498 23.5052 28.2498 23.4962 28.25 23.4872V21C28.25 20.3096 27.6904 19.75 27 19.75H17ZM29.75 22.1941V21C29.75 19.4812 28.5188 18.25 27 18.25H17C15.4812 18.25 14.25 19.4812 14.25 21V29C14.25 30.5188 15.4812 31.75 17 31.75H27C28.5188 31.75 29.75 30.5188 29.75 29V27.4014L33.807 30.106C33.9952 30.2313 34.2144 30.3035 34.4403 30.3143C34.6661 30.3251 34.8907 30.2745 35.09 30.1677C35.2893 30.061 35.456 29.9022 35.5722 29.7083C35.6884 29.5143 35.7499 29.2925 35.75 29.0664V20.8702C35.75 20.8701 35.75 20.8703 35.75 20.8702C35.75 20.6504 35.6921 20.4342 35.5819 20.2438C35.4718 20.0535 35.3134 19.8955 35.1227 19.786C34.9319 19.6764 34.7157 19.6191 34.4958 19.6199C34.2758 19.6206 34.06 19.6794 33.87 19.7902L29.75 22.1941ZM29.75 23.9307V25.5986L34.25 28.5986V21.3052L29.75 23.9307ZM34.626 21.0858C34.6258 21.0859 34.6262 21.0857 34.626 21.0858V21.0858Z" fill="white"/>
</svg>
