<svg width="50" height="50" viewBox="0 0 50 50" fill="none" xmlns="http://www.w3.org/2000/svg">
<rect width="50" height="50" rx="16" fill="#FFC14F"/>
<path fill-rule="evenodd" clip-rule="evenodd" d="M22.25 15C22.25 14.5858 22.5858 14.25 23 14.25H27C27.4142 14.25 27.75 14.5858 27.75 15C27.75 15.4142 27.4142 15.75 27 15.75H23C22.5858 15.75 22.25 15.4142 22.25 15ZM25 19.75C20.9959 19.75 17.75 22.9959 17.75 27C17.75 31.0041 20.9959 34.25 25 34.25C29.0041 34.25 32.25 31.0041 32.25 27C32.25 22.9959 29.0041 19.75 25 19.75ZM16.25 27C16.25 22.1675 20.1675 18.25 25 18.25C29.8325 18.25 33.75 22.1675 33.75 27C33.75 31.8325 29.8325 35.75 25 35.75C20.1675 35.75 16.25 31.8325 16.25 27ZM28.5303 23.4697C28.8232 23.7626 28.8232 24.2374 28.5303 24.5303L25.5303 27.5303C25.2374 27.8232 24.7626 27.8232 24.4697 27.5303C24.1768 27.2374 24.1768 26.7626 24.4697 26.4697L27.4697 23.4697C27.7626 23.1768 28.2374 23.1768 28.5303 23.4697Z" fill="white"/>
</svg>
