<svg width="50" height="50" viewBox="0 0 50 50" fill="none" xmlns="http://www.w3.org/2000/svg">
<rect width="50" height="50" rx="16" fill="#F77A7A"/>
<path fill-rule="evenodd" clip-rule="evenodd" d="M25 14.25C25.2855 14.25 25.5462 14.4121 25.6726 14.668L28.5882 20.5748L35.1085 21.5279C35.3909 21.5692 35.6254 21.7672 35.7135 22.0387C35.8015 22.3102 35.7278 22.6081 35.5233 22.8073L30.8059 27.402L31.9192 33.8932C31.9675 34.1746 31.8518 34.459 31.6208 34.6268C31.3898 34.7946 31.0836 34.8167 30.8309 34.6838L25 31.6174L19.1691 34.6838C18.9164 34.8167 18.6102 34.7946 18.3792 34.6268C18.1482 34.459 18.0326 34.1746 18.0808 33.8932L19.1941 27.402L14.4767 22.8073C14.2723 22.6081 14.1986 22.3102 14.2866 22.0387C14.3746 21.7672 14.6091 21.5692 14.8916 21.5279L21.4118 20.5748L24.3275 14.668C24.4538 14.4121 24.7146 14.25 25 14.25ZM25 16.6944L22.5826 21.592C22.4734 21.8131 22.2625 21.9664 22.0185 22.0021L16.6113 22.7925L20.5233 26.6027C20.7002 26.775 20.781 27.0234 20.7392 27.2668L19.8162 32.6488L24.6509 30.1062C24.8695 29.9913 25.1306 29.9913 25.3491 30.1062L30.1839 32.6488L29.2608 27.2668C29.2191 27.0234 29.2998 26.775 29.4767 26.6027L33.3887 22.7925L27.9816 22.0021C27.7375 21.9664 27.5266 21.8131 27.4175 21.592L25 16.6944Z" fill="white"/>
</svg>
