<svg width="50" height="50" viewBox="0 0 50 50" fill="none" xmlns="http://www.w3.org/2000/svg">
<rect width="50" height="50" rx="16" fill="#9973FB"/>
<path fill-rule="evenodd" clip-rule="evenodd" d="M35.5303 14.4697C35.7341 14.6734 35.8031 14.9758 35.7079 15.2478L28.7079 35.2478C28.6063 35.538 28.3378 35.7369 28.0306 35.7494C27.7233 35.7619 27.4395 35.5856 27.3146 35.3046L23.4318 26.5682L14.6954 22.6854C14.4144 22.5605 14.2381 22.2767 14.2506 21.9694C14.2632 21.6622 14.462 21.3937 14.7522 21.2921L34.7522 14.2921C35.0242 14.1969 35.3266 14.266 35.5303 14.4697ZM24.8946 26.1661L27.9171 32.9667L33.2064 17.8543L24.8946 26.1661ZM32.1457 16.7936L17.0333 22.083L23.8339 25.1055L32.1457 16.7936Z" fill="white"/>
</svg>
