<svg width="32" height="32" viewBox="0 0 32 32" fill="none" xmlns="http://www.w3.org/2000/svg">
<rect width="32" height="32" rx="16" fill="white" fill-opacity="0.6"/>
<path d="M16 16.75C16.4142 16.75 16.75 16.4142 16.75 16C16.75 15.5858 16.4142 15.25 16 15.25C15.5858 15.25 15.25 15.5858 15.25 16C15.25 16.4142 15.5858 16.75 16 16.75Z" stroke="#111111" stroke-width="2" stroke-linecap="round" stroke-linejoin="round"/>
<path d="M21.25 16.75C21.6642 16.75 22 16.4142 22 16C22 15.5858 21.6642 15.25 21.25 15.25C20.8358 15.25 20.5 15.5858 20.5 16C20.5 16.4142 20.8358 16.75 21.25 16.75Z" stroke="#111111" stroke-width="2" stroke-linecap="round" stroke-linejoin="round"/>
<path d="M10.75 16.75C11.1642 16.75 11.5 16.4142 11.5 16C11.5 15.5858 11.1642 15.25 10.75 15.25C10.3358 15.25 10 15.5858 10 16C10 16.4142 10.3358 16.75 10.75 16.75Z" stroke="#111111" stroke-width="2" stroke-linecap="round" stroke-linejoin="round"/>
</svg>
