<svg width="18" height="18" viewBox="0 0 18 18" fill="none" xmlns="http://www.w3.org/2000/svg">
<g clip-path="url(#clip0_92_78)">
<path fill-rule="evenodd" clip-rule="evenodd" d="M3 2.0625C2.48566 2.0625 2.0625 2.48566 2.0625 3V10.5C2.0625 11.0143 2.48566 11.4375 3 11.4375C3.31066 11.4375 3.5625 11.6893 3.5625 12C3.5625 12.3107 3.31066 12.5625 3 12.5625C1.86434 12.5625 0.9375 11.6357 0.9375 10.5V3C0.9375 1.86434 1.86434 0.9375 3 0.9375H10.5C11.6357 0.9375 12.5625 1.86434 12.5625 3C12.5625 3.31066 12.3107 3.5625 12 3.5625C11.6893 3.5625 11.4375 3.31066 11.4375 3C11.4375 2.48566 11.0143 2.0625 10.5 2.0625H3ZM7.5 6.5625C6.98223 6.5625 6.5625 6.98223 6.5625 7.5V15C6.5625 15.5178 6.98223 15.9375 7.5 15.9375H15C15.5178 15.9375 15.9375 15.5178 15.9375 15V7.5C15.9375 6.98223 15.5178 6.5625 15 6.5625H7.5ZM5.4375 7.5C5.4375 6.36091 6.36091 5.4375 7.5 5.4375H15C16.1391 5.4375 17.0625 6.36091 17.0625 7.5V15C17.0625 16.1391 16.1391 17.0625 15 17.0625H7.5C6.36091 17.0625 5.4375 16.1391 5.4375 15V7.5Z" fill="#111111"/>
</g>
<defs>
<clipPath id="clip0_92_78">
<rect width="18" height="18" fill="white"/>
</clipPath>
</defs>
</svg>
