<svg width="20" height="20" viewBox="0 0 20 20" fill="none" xmlns="http://www.w3.org/2000/svg">
<path d="M14.7619 1.66666H5.23805C3.26561 1.66666 1.66663 3.26564 1.66663 5.23809V14.7619C1.66663 16.7343 3.26561 18.3333 5.23805 18.3333H14.7619C16.7343 18.3333 18.3333 16.7343 18.3333 14.7619V5.23809C18.3333 3.26564 16.7343 1.66666 14.7619 1.66666Z" fill="url(#paint0_radial_56_8)"/>
<path d="M14.7619 1.66666H5.23805C3.26561 1.66666 1.66663 3.26564 1.66663 5.23809V14.7619C1.66663 16.7343 3.26561 18.3333 5.23805 18.3333H14.7619C16.7343 18.3333 18.3333 16.7343 18.3333 14.7619V5.23809C18.3333 3.26564 16.7343 1.66666 14.7619 1.66666Z" fill="url(#paint1_radial_56_8)"/>
<path d="M14.7619 1.66666H5.23805C3.26561 1.66666 1.66663 3.26564 1.66663 5.23809V14.7619C1.66663 16.7343 3.26561 18.3333 5.23805 18.3333H14.7619C16.7343 18.3333 18.3333 16.7343 18.3333 14.7619V5.23809C18.3333 3.26564 16.7343 1.66666 14.7619 1.66666Z" fill="url(#paint2_radial_56_8)"/>
<path d="M14.1667 6.66668C14.1667 7.1269 13.7936 7.50001 13.3333 7.50001C12.8731 7.50001 12.5 7.1269 12.5 6.66668C12.5 6.20644 12.8731 5.83334 13.3333 5.83334C13.7936 5.83334 14.1667 6.20644 14.1667 6.66668Z" fill="white"/>
<path fill-rule="evenodd" clip-rule="evenodd" d="M9.99996 13.3333C11.8409 13.3333 13.3333 11.8409 13.3333 9.99999C13.3333 8.15906 11.8409 6.66666 9.99996 6.66666C8.15903 6.66666 6.66663 8.15906 6.66663 9.99999C6.66663 11.8409 8.15903 13.3333 9.99996 13.3333ZM9.99996 12C11.1046 12 12 11.1046 12 9.99999C12 8.89539 11.1046 7.99999 9.99996 7.99999C8.89536 7.99999 7.99996 8.89539 7.99996 9.99999C7.99996 11.1046 8.89536 12 9.99996 12Z" fill="white"/>
<path fill-rule="evenodd" clip-rule="evenodd" d="M4.16663 9.76666C4.16663 7.80648 4.16663 6.82636 4.5481 6.07769C4.88366 5.41912 5.41909 4.88369 6.07766 4.54813C6.82633 4.16666 7.80645 4.16666 9.76663 4.16666H10.2333C12.1935 4.16666 13.1736 4.16666 13.9222 4.54813C14.5808 4.88369 15.1163 5.41912 15.4518 6.07769C15.8333 6.82636 15.8333 7.80648 15.8333 9.76666V10.2333C15.8333 12.1935 15.8333 13.1736 15.4518 13.9223C15.1163 14.5808 14.5808 15.1163 13.9222 15.4518C13.1736 15.8333 12.1935 15.8333 10.2333 15.8333H9.76663C7.80645 15.8333 6.82633 15.8333 6.07766 15.4518C5.41909 15.1163 4.88366 14.5808 4.5481 13.9223C4.16663 13.1736 4.16663 12.1935 4.16663 10.2333V9.76666ZM9.76663 5.33332H10.2333C11.2327 5.33332 11.912 5.33423 12.4371 5.37713C12.9486 5.41892 13.2102 5.49467 13.3926 5.58764C13.8316 5.81135 14.1886 6.1683 14.4123 6.60732C14.5053 6.78979 14.5811 7.05136 14.6228 7.56288C14.6657 8.088 14.6666 8.76729 14.6666 9.76666V10.2333C14.6666 11.2327 14.6657 11.912 14.6228 12.4371C14.5811 12.9486 14.5053 13.2102 14.4123 13.3927C14.1886 13.8317 13.8316 14.1886 13.3926 14.4123C13.2102 14.5053 12.9486 14.5811 12.4371 14.6228C11.912 14.6657 11.2327 14.6667 10.2333 14.6667H9.76663C8.76726 14.6667 8.08797 14.6657 7.56285 14.6228C7.05133 14.5811 6.78976 14.5053 6.60729 14.4123C6.16827 14.1886 5.81132 13.8317 5.58761 13.3927C5.49464 13.2102 5.41889 12.9486 5.3771 12.4371C5.3342 11.912 5.33329 11.2327 5.33329 10.2333V9.76666C5.33329 8.76729 5.3342 8.088 5.3771 7.56288C5.41889 7.05136 5.49464 6.78979 5.58761 6.60732C5.81132 6.1683 6.16827 5.81135 6.60729 5.58764C6.78976 5.49467 7.05133 5.41892 7.56285 5.37713C8.08797 5.33423 8.76726 5.33332 9.76663 5.33332Z" fill="white"/>
<defs>
<radialGradient id="paint0_radial_56_8" cx="0" cy="0" r="1" gradientUnits="userSpaceOnUse" gradientTransform="translate(7.61901 14.1667) rotate(-55.3758) scale(15.1902)">
<stop stop-color="#B13589"/>
<stop offset="0.79309" stop-color="#C62F94"/>
<stop offset="1" stop-color="#8A3AC8"/>
</radialGradient>
<radialGradient id="paint1_radial_56_8" cx="0" cy="0" r="1" gradientUnits="userSpaceOnUse" gradientTransform="translate(7.02377 18.9286) rotate(-65.1363) scale(13.4489)">
<stop stop-color="#E0E8B7"/>
<stop offset="0.444662" stop-color="#FB8A2E"/>
<stop offset="0.71474" stop-color="#E2425C"/>
<stop offset="1" stop-color="#E2425C" stop-opacity="0"/>
</radialGradient>
<radialGradient id="paint2_radial_56_8" cx="0" cy="0" r="1" gradientUnits="userSpaceOnUse" gradientTransform="translate(0.773769 2.26189) rotate(-8.1301) scale(23.1493 4.95141)">
<stop offset="0.156701" stop-color="#406ADC"/>
<stop offset="0.467799" stop-color="#6A45BE"/>
<stop offset="1" stop-color="#6A45BE" stop-opacity="0"/>
</radialGradient>
</defs>
</svg>
