<svg width="16" height="15" viewBox="0 0 16 15" fill="none" xmlns="http://www.w3.org/2000/svg">
<path d="M7.68323 1.03C7.71245 0.970974 7.75758 0.921289 7.81353 0.88655C7.86949 0.851812 7.93404 0.833405 7.9999 0.833405C8.06576 0.833405 8.13031 0.851812 8.18626 0.88655C8.24222 0.921289 8.28735 0.970974 8.31656 1.03L9.85656 4.14933C9.95802 4.35465 10.1078 4.53227 10.293 4.66697C10.4782 4.80167 10.6933 4.88941 10.9199 4.92267L14.3639 5.42667C14.4292 5.43612 14.4905 5.46365 14.5409 5.50613C14.5913 5.54862 14.6288 5.60437 14.6492 5.66707C14.6696 5.72978 14.6721 5.79694 14.6563 5.86096C14.6405 5.92498 14.6071 5.9833 14.5599 6.02933L12.0692 8.45467C11.905 8.61473 11.7821 8.81232 11.7111 9.03042C11.6402 9.24852 11.6233 9.48059 11.6619 9.70667L12.2499 13.1333C12.2614 13.1986 12.2544 13.2657 12.2296 13.3271C12.2048 13.3885 12.1632 13.4417 12.1096 13.4807C12.056 13.5196 11.9925 13.5427 11.9265 13.5473C11.8604 13.5519 11.7944 13.5378 11.7359 13.5067L8.65723 11.888C8.45438 11.7815 8.22868 11.7258 7.99956 11.7258C7.77044 11.7258 7.54475 11.7815 7.3419 11.888L4.2639 13.5067C4.20545 13.5376 4.1395 13.5515 4.07353 13.5468C4.00757 13.5421 3.94424 13.519 3.89076 13.4801C3.83728 13.4413 3.79579 13.3881 3.771 13.3268C3.74622 13.2655 3.73914 13.1985 3.75056 13.1333L4.3379 9.70733C4.37669 9.48116 4.35989 9.24893 4.28892 9.0307C4.21796 8.81246 4.09497 8.61477 3.93056 8.45467L1.4399 6.03C1.39229 5.98402 1.35856 5.9256 1.34254 5.86138C1.32652 5.79717 1.32886 5.72975 1.34928 5.66679C1.36971 5.60384 1.40741 5.54789 1.45808 5.50532C1.50876 5.46275 1.57037 5.43527 1.6359 5.426L5.07923 4.92267C5.30607 4.88967 5.52149 4.80204 5.70695 4.66733C5.89242 4.53261 6.04237 4.35485 6.1439 4.14933L7.68323 1.03Z" stroke="#111111" stroke-width="1.5" stroke-linecap="round" stroke-linejoin="round"/>
</svg>
