<svg width="18" height="18" viewBox="0 0 18 18" fill="none" xmlns="http://www.w3.org/2000/svg">
<path d="M9.00047 3.18796C10.7084 3.18803 12.3777 3.69551 13.7971 4.64548C15.2166 5.59552 16.3224 6.94535 16.9736 8.52438C16.9762 8.53058 16.9786 8.53715 16.9809 8.54343C17.0903 8.83806 17.0903 9.16213 16.9809 9.45676C16.9786 9.46303 16.9762 9.46961 16.9736 9.4758C16.3223 11.0548 15.2165 12.4047 13.7971 13.3547C12.3777 14.3046 10.7084 14.8122 9.00047 14.8122C7.29241 14.8122 5.62259 14.3047 4.2031 13.3547C2.78367 12.4047 1.67785 11.0548 1.02659 9.4758C1.02404 9.46961 1.02159 9.46303 1.01926 9.45676C0.9099 9.16213 0.90994 8.83806 1.01926 8.54343L1.02659 8.52438C1.67784 6.94534 2.78362 5.59552 4.2031 4.64548C5.62261 3.69544 7.29238 3.18796 9.00047 3.18796ZM9.00047 4.31296C7.51517 4.31296 6.06294 4.75393 4.82859 5.58005C3.5983 6.40347 2.63879 7.57238 2.07175 8.93967C2.05848 8.97883 2.05912 9.02137 2.07249 9.06052C2.63954 10.4276 3.59843 11.5968 4.82859 12.4201C6.06292 13.2462 7.51521 13.6872 9.00047 13.6872C10.4856 13.6872 11.9374 13.2461 13.1716 12.4201C14.4017 11.5969 15.3599 10.4275 15.927 9.06052C15.9405 9.02123 15.9411 8.97897 15.9277 8.93967C15.3607 7.5725 14.4018 6.40341 13.1716 5.58005C11.9374 4.754 10.4856 4.31303 9.00047 4.31296Z" fill="#111111"/>
<path d="M10.6875 9C10.6875 8.06802 9.93198 7.3125 9 7.3125C8.06802 7.3125 7.3125 8.06802 7.3125 9C7.3125 9.93198 8.06802 10.6875 9 10.6875C9.93198 10.6875 10.6875 9.93198 10.6875 9ZM11.8125 9C11.8125 10.5533 10.5533 11.8125 9 11.8125C7.4467 11.8125 6.1875 10.5533 6.1875 9C6.1875 7.4467 7.4467 6.1875 9 6.1875C10.5533 6.1875 11.8125 7.4467 11.8125 9Z" fill="#111111"/>
</svg>
