<svg width="14" height="13" viewBox="0 0 14 13" fill="none" xmlns="http://www.w3.org/2000/svg">
<path d="M1.33354 12V11.7454L0.965052 11.9297C0.635733 12.0943 0.23518 11.9608 0.0705208 11.6315C-0.0941385 11.3022 0.039379 10.9016 0.368698 10.737L0.509323 10.6667L0.368698 10.5964C0.0393789 10.4317 -0.0941387 10.0311 0.0705208 9.70182C0.23518 9.3725 0.635733 9.23899 0.965052 9.40365L1.33354 9.58789V9.33333C1.33354 8.96514 1.63202 8.66667 2.00021 8.66667C2.3684 8.66667 2.66687 8.96514 2.66687 9.33333V9.58789L3.03536 9.40365C3.36468 9.23899 3.76524 9.3725 3.9299 9.70182C4.09456 10.0311 3.96104 10.4317 3.63172 10.5964L3.49109 10.6667L3.63172 10.737C3.96104 10.9016 4.09456 11.3022 3.9299 11.6315C3.76524 11.9608 3.36468 12.0943 3.03536 11.9297L2.66687 11.7454V12C2.66687 12.3682 2.3684 12.6667 2.00021 12.6667C1.63202 12.6667 1.33354 12.3682 1.33354 12ZM6.00021 12V11.7454L5.63172 11.9297C5.3024 12.0943 4.90185 11.9608 4.73719 11.6315C4.57253 11.3022 4.70605 10.9016 5.03536 10.737L5.17599 10.6667L5.03536 10.5964C4.70605 10.4317 4.57253 10.0311 4.73719 9.70182C4.90185 9.3725 5.3024 9.23899 5.63172 9.40365L6.00021 9.58789V9.33333C6.00021 8.96514 6.29869 8.66667 6.66688 8.66667C7.03507 8.66667 7.33354 8.96514 7.33354 9.33333V9.58789L7.70203 9.40365C8.03135 9.23899 8.4319 9.3725 8.59656 9.70182C8.76122 10.0311 8.6277 10.4317 8.29839 10.5964L8.15776 10.6667L8.29839 10.737C8.6277 10.9016 8.76122 11.3022 8.59656 11.6315C8.4319 11.9608 8.03135 12.0943 7.70203 11.9297L7.33354 11.7454V12C7.33354 12.3682 7.03507 12.6667 6.66688 12.6667C6.29869 12.6667 6.00021 12.3682 6.00021 12ZM10.6669 12V11.7454L10.2984 11.9297C9.96907 12.0943 9.56851 11.9608 9.40385 11.6315C9.2392 11.3022 9.37271 10.9016 9.70203 10.737L9.84266 10.6667L9.70203 10.5964C9.37271 10.4317 9.23919 10.0311 9.40385 9.70182C9.56851 9.3725 9.96907 9.23899 10.2984 9.40365L10.6669 9.58789V9.33333C10.6669 8.96514 10.9654 8.66667 11.3335 8.66667C11.7017 8.66667 12.0002 8.96514 12.0002 9.33333V9.58789L12.3687 9.40365C12.698 9.23899 13.0986 9.3725 13.2632 9.70182C13.4279 10.0311 13.2944 10.4317 12.9651 10.5964L12.8244 10.6667L12.9651 10.737C13.2944 10.9016 13.4279 11.3022 13.2632 11.6315C13.0986 11.9608 12.698 12.0943 12.3687 11.9297L12.0002 11.7454V12C12.0002 12.3682 11.7017 12.6667 11.3335 12.6667C10.9654 12.6667 10.6669 12.3682 10.6669 12ZM9.33354 7.33333V2C9.33354 1.82319 9.26325 1.65367 9.13823 1.52865C9.01321 1.40362 8.84369 1.33333 8.66688 1.33333H8.00021C8.00021 1.70152 7.70173 2 7.33354 2H6.00021C5.63202 2 5.33354 1.70152 5.33354 1.33333H4.66687C4.49006 1.33333 4.32055 1.40362 4.19552 1.52865C4.0705 1.65367 4.00021 1.82319 4.00021 2V7.33333C4.00021 7.70152 3.70173 8 3.33354 8C2.96535 8 2.66687 7.70152 2.66687 7.33333V2C2.66687 1.46957 2.87774 0.96101 3.25281 0.585938C3.62789 0.210865 4.13644 0 4.66687 0H8.66688C9.19731 0 9.70587 0.210865 10.0809 0.585938C10.456 0.96101 10.6669 1.46957 10.6669 2V7.33333C10.6669 7.70152 10.3684 8 10.0002 8C9.63202 8 9.33354 7.70152 9.33354 7.33333Z" fill="#7E81A0"/>
</svg>
