<svg width="11" height="17" viewBox="0 0 11 17" fill="none" xmlns="http://www.w3.org/2000/svg">
<path fill-rule="evenodd" clip-rule="evenodd" d="M4.68864 0.00960116C5.02858 0.0695454 5.25555 0.39371 5.19561 0.733643L5.01463 1.75992L7.06668 2.12179L7.24797 1.09555C7.30801 0.755633 7.63225 0.528754 7.97216 0.5888C8.31208 0.648846 8.53896 0.973079 8.47891 1.31299L8.29065 2.37871C9.16206 2.65516 9.81807 3.16201 10.2451 3.80451C10.76 4.57928 10.9132 5.50813 10.7613 6.36936C10.6095 7.23059 10.1478 8.051 9.39904 8.60291C9.19999 8.74962 8.98361 8.87518 8.75137 8.97682C8.93452 9.15162 9.09465 9.34343 9.23131 9.54913C9.74607 10.3239 9.89919 11.2528 9.74727 12.114C9.59535 12.9752 9.13369 13.7956 8.38491 14.3475C7.76421 14.8051 6.97487 15.057 6.06203 15.0191L5.87485 16.0849C5.81514 16.4249 5.49113 16.6521 5.15115 16.5924C4.81118 16.5326 4.58398 16.2086 4.64369 15.8687L4.82399 14.8421L2.77155 14.4801L2.59061 15.5061C2.53066 15.8461 2.2065 16.0731 1.86657 16.0131C1.52663 15.9532 1.29966 15.629 1.3596 15.2891L1.54056 14.2629L0.516531 14.0823C0.176601 14.0223 -0.0503564 13.6981 0.00960746 13.3582C0.0695713 13.0183 0.393749 12.7913 0.733679 12.8513L1.75763 13.0319L3.56655 2.77385L2.54157 2.59311C2.20163 2.53316 1.97466 2.209 2.0346 1.86907C2.09455 1.52913 2.41871 1.30216 2.75864 1.3621L3.78363 1.54285L3.9646 0.516566C4.02455 0.176633 4.34871 -0.050343 4.68864 0.00960116ZM4.79756 2.99093L4.00162 7.50453L6.67019 7.97458C7.54326 8.12866 8.19952 7.93418 8.6574 7.5967C9.12441 7.25248 9.42896 6.72722 9.53033 6.1523C9.6317 5.57739 9.52517 4.97962 9.20402 4.4964C8.89055 4.02473 8.34401 3.61901 7.4775 3.46353C7.47324 3.46287 7.46898 3.46216 7.46472 3.46141C7.46031 3.46063 7.45591 3.45981 7.45154 3.45894L4.79756 2.99093ZM3.78454 8.73554L2.98863 13.249L5.65611 13.7196C5.65608 13.7196 5.65613 13.7196 5.65611 13.7196C6.52915 13.8735 7.1853 13.6789 7.64322 13.3413C8.11028 12.9971 8.41486 12.4718 8.51628 11.8968C8.61769 11.3219 8.51122 10.7241 8.19015 10.2408C7.87534 9.767 7.32541 9.35968 6.45232 9.20559C6.44791 9.20482 6.44353 9.20399 6.43917 9.20313L3.78454 8.73554Z" fill="#111111"/>
</svg>
