<svg width="50" height="50" viewBox="0 0 50 50" fill="none" xmlns="http://www.w3.org/2000/svg">
<path d="M0 12C0 5.37258 5.37258 0 12 0H38C44.6274 0 50 5.37258 50 12V38C50 44.6274 44.6274 50 38 50H12C5.37258 50 0 44.6274 0 38V12Z" fill="#A937F4"/>
<path d="M21 28C21 27.7348 20.8946 27.4805 20.707 27.293C20.5195 27.1054 20.2652 27 20 27H19C18.7348 27 18.4805 27.1054 18.293 27.293C18.1054 27.4805 18 27.7348 18 28V31C18 31.2652 18.1054 31.5195 18.293 31.707C18.4805 31.8946 18.7348 32 19 32H20C20.2652 32 20.5195 31.8946 20.707 31.707C20.8946 31.5195 21 31.2652 21 31V28ZM32 28C32 27.7348 31.8946 27.4805 31.707 27.293C31.5195 27.1054 31.2652 27 31 27H30C29.7348 27 29.4805 27.1054 29.293 27.293C29.1054 27.4805 29 27.7348 29 28V31C29 31.2652 29.1054 31.5195 29.293 31.707C29.4805 31.8946 29.7348 32 30 32H31C31.2652 32 31.5195 31.8946 31.707 31.707C31.8946 31.5195 32 31.2652 32 31V28ZM23 31C23 31.7957 22.6837 32.5585 22.1211 33.1211C21.5585 33.6837 20.7957 34 20 34H19C18.2044 34 17.4415 33.6837 16.8789 33.1211C16.3163 32.5585 16 31.7956 16 31V28C16 27.2044 16.3163 26.4415 16.8789 25.8789C17.4415 25.3163 18.2044 25 19 25H20C20.7957 25 21.5585 25.3163 22.1211 25.8789C22.6837 26.4415 23 27.2043 23 28V31ZM34 31C34 31.7957 33.6837 32.5585 33.1211 33.1211C32.5585 33.6837 31.7957 34 31 34H30C29.2043 34 28.4415 33.6837 27.8789 33.1211C27.3163 32.5585 27 31.7957 27 31V28C27 27.2043 27.3163 26.4415 27.8789 25.8789C28.4415 25.3163 29.2043 25 30 25H31C31.7957 25 32.5585 25.3163 33.1211 25.8789C33.6837 26.4415 34 27.2043 34 28V31Z" fill="white"/>
<path d="M32 28V25C32 23.1435 31.2629 21.3626 29.9502 20.0498C28.6374 18.7371 26.8565 18 25 18C23.1435 18 21.3626 18.7371 20.0498 20.0498C18.7371 21.3626 18 23.1435 18 25V28C18 28.5523 17.5523 29 17 29C16.4477 29 16 28.5523 16 28V25C16 22.6131 16.9479 20.3236 18.6357 18.6357C20.3236 16.9479 22.6131 16 25 16C27.3869 16 29.6764 16.9479 31.3643 18.6357C33.0521 20.3236 34 22.6131 34 25V28C34 28.5523 33.5523 29 33 29C32.4477 29 32 28.5523 32 28Z" fill="white"/>
</svg>
