<svg width="58" height="58" viewBox="0 0 58 58" fill="none" xmlns="http://www.w3.org/2000/svg">
<path d="M0 16C0 7.16345 7.16344 0 16 0H42C50.8366 0 58 7.16344 58 16V42C58 50.8366 50.8366 58 42 58H16C7.16345 58 0 50.8366 0 42V16Z" fill="#A937F4"/>
<path fill-rule="evenodd" clip-rule="evenodd" d="M23.2661 21.1121C25.1443 19.7437 27.4494 19.091 29.7662 19.2717C32.0829 19.4525 34.259 20.4547 35.9021 22.0979C37.5453 23.7411 38.5476 25.9171 38.7283 28.2339C38.909 30.5506 38.2564 32.8558 36.8879 34.7339C35.5194 36.612 33.5252 37.9396 31.2645 38.4775C29.1086 38.9904 26.8455 38.7529 24.8472 37.8099L19.2408 39.7103C18.9704 39.802 18.6715 39.7322 18.4697 39.5304C18.2678 39.3285 18.198 39.0296 18.2897 38.7593L20.1902 33.1529C19.2472 31.1545 19.0097 28.8915 19.5226 26.7356C20.0604 24.4749 21.388 22.4806 23.2661 21.1121ZM29.6495 20.7672C27.6892 20.6143 25.7387 21.1665 24.1495 22.3245C22.5603 23.4824 21.4369 25.1698 20.9818 27.0827C20.5268 28.9956 20.7698 31.0082 21.6673 32.7577C21.7599 32.9383 21.7754 33.1487 21.7103 33.3408L20.198 37.802L24.6592 36.2897C24.8514 36.2246 25.0618 36.2401 25.2423 36.3327C26.9918 37.2302 29.0044 37.4733 30.9173 37.0182C32.8302 36.5631 34.5177 35.4397 35.6756 33.8506C36.8335 32.2614 37.3858 30.3109 37.2328 28.3505C37.0799 26.3902 36.2318 24.5489 34.8415 23.1586C33.4511 21.7682 31.6098 20.9201 29.6495 20.7672Z" fill="white"/>
</svg>
