<svg width="18" height="18" viewBox="0 0 18 18" fill="none" xmlns="http://www.w3.org/2000/svg">
<path fill-rule="evenodd" clip-rule="evenodd" d="M13.8977 4.10225C14.1174 4.32192 14.1174 4.67808 13.8977 4.89775L5.64775 13.1477C5.42808 13.3674 5.07192 13.3674 4.85225 13.1477L1.10225 9.39775C0.882583 9.17808 0.882583 8.82192 1.10225 8.60225C1.32192 8.38258 1.67808 8.38258 1.89775 8.60225L5.25 11.9545L13.1023 4.10225C13.3219 3.88258 13.6781 3.88258 13.8977 4.10225ZM16.8977 7.10225C17.1174 7.32192 17.1174 7.67808 16.8977 7.89775L11.2727 13.5227C11.0531 13.7424 10.6969 13.7424 10.4773 13.5227L9.35225 12.3977C9.13258 12.1781 9.13258 11.8219 9.35225 11.6023C9.57192 11.3826 9.92808 11.3826 10.1477 11.6023L10.875 12.3295L16.1023 7.10225C16.3219 6.88258 16.6781 6.88258 16.8977 7.10225Z" fill="white"/>
</svg>
