<svg width="17" height="17" viewBox="0 0 17 17" fill="none" xmlns="http://www.w3.org/2000/svg">
<path d="M5.69995 5.7002V3.36702C5.69995 2.4336 5.69995 1.96655 5.88161 1.61003C6.0414 1.29642 6.29618 1.04164 6.60978 0.881851C6.9663 0.700195 7.43336 0.700195 8.36678 0.700195H13.0334C13.9669 0.700195 14.4333 0.700195 14.7899 0.881851C15.1035 1.04164 15.3587 1.29642 15.5185 1.61003C15.7001 1.96655 15.7001 2.43326 15.7001 3.36668V8.03337C15.7001 8.96679 15.7001 9.4335 15.5185 9.79002C15.3587 10.1036 15.1032 10.3589 14.7896 10.5187C14.4334 10.7002 13.9675 10.7002 13.0359 10.7002H10.7M5.69995 5.7002H3.36678C2.43336 5.7002 1.9663 5.7002 1.60978 5.88185C1.29618 6.04164 1.0414 6.29642 0.881607 6.61003C0.699951 6.96655 0.699951 7.4336 0.699951 8.36702V13.0337C0.699951 13.9671 0.699951 14.4336 0.881607 14.7901C1.0414 15.1037 1.29618 15.3589 1.60978 15.5187C1.96595 15.7002 2.43245 15.7002 3.36404 15.7002H8.03624C8.96784 15.7002 9.43368 15.7002 9.78985 15.5187C10.1035 15.3589 10.3587 15.1035 10.5185 14.7899C10.7 14.4337 10.7 13.9677 10.7 13.0361V10.7002M5.69995 5.7002H8.03345C8.96687 5.7002 9.43333 5.7002 9.78985 5.88185C10.1035 6.04164 10.3587 6.29642 10.5185 6.61003C10.7 6.9662 10.7 7.4327 10.7 8.36431L10.7 10.7002" stroke="#7E81A0" stroke-width="1.4" stroke-linecap="round" stroke-linejoin="round"/>
</svg>
