<svg width="12" height="12" viewBox="0 0 12 12" fill="none" xmlns="http://www.w3.org/2000/svg">
<path fill-rule="evenodd" clip-rule="evenodd" d="M1.10225 1.10225C1.32192 0.882583 1.67808 0.882583 1.89775 1.10225L6 5.2045L10.1023 1.10225C10.3219 0.882583 10.6781 0.882583 10.8977 1.10225C11.1174 1.32192 11.1174 1.67808 10.8977 1.89775L6.7955 6L10.8977 10.1023C11.1174 10.3219 11.1174 10.6781 10.8977 10.8977C10.6781 11.1174 10.3219 11.1174 10.1023 10.8977L6 6.7955L1.89775 10.8977C1.67808 11.1174 1.32192 11.1174 1.10225 10.8977C0.882583 10.6781 0.882583 10.3219 1.10225 10.1023L5.2045 6L1.10225 1.89775C0.882583 1.67808 0.882583 1.32192 1.10225 1.10225Z" fill="#111111"/>
</svg>
