<svg width="13" height="14" viewBox="0 0 13 14" fill="none" xmlns="http://www.w3.org/2000/svg">
<path d="M6.66544 0C5.45858 0.000221776 4.27442 0.328048 3.23926 0.948509C2.20411 1.56897 1.3568 2.45879 0.78771 3.52306C0.218624 4.58732 -0.0508885 5.7861 0.0079214 6.99153C0.0667313 8.19696 0.451657 9.36381 1.12164 10.3676C1.79162 11.3714 2.72153 12.1746 3.81216 12.6913C4.9028 13.2081 6.11325 13.4191 7.3144 13.3018C8.51556 13.1845 9.66235 12.7434 10.6325 12.0255C11.6026 11.3076 12.3596 10.3398 12.8228 9.22533C13.0501 8.67867 12.5054 8.12933 11.9574 8.352C11.0182 8.73245 9.97538 8.77171 9.01022 8.46295C8.04505 8.1542 7.21862 7.51695 6.67461 6.66201C6.13059 5.80708 5.9034 4.78852 6.03254 3.78344C6.16168 2.77835 6.63897 1.85031 7.38144 1.16067L7.43278 1.10733C7.80011 0.687333 7.50811 0.00533334 6.92744 0.00533334H6.75011L6.70478 0.00133332L6.66544 0Z" fill="#A94DFA"/>
</svg>
