<svg width="44" height="44" viewBox="0 0 44 44" fill="none" xmlns="http://www.w3.org/2000/svg">
<rect width="44" height="44" rx="16" fill="#111111"/>
<path fill-rule="evenodd" clip-rule="evenodd" d="M27.4423 16.5581C27.6863 16.8021 27.6863 17.1979 27.4423 17.4419L18.2756 26.6086C18.0315 26.8527 17.6358 26.8527 17.3917 26.6086L13.2251 22.4419C12.981 22.1979 12.981 21.8021 13.2251 21.5581C13.4691 21.314 13.8649 21.314 14.1089 21.5581L17.8337 25.2828L26.5584 16.5581C26.8025 16.314 27.1982 16.314 27.4423 16.5581ZM30.7756 19.8914C31.0197 20.1355 31.0197 20.5312 30.7756 20.7753L24.5256 27.0253C24.2815 27.2694 23.8858 27.2694 23.6417 27.0253L22.3917 25.7753C22.1476 25.5312 22.1476 25.1355 22.3917 24.8914C22.6358 24.6473 23.0315 24.6473 23.2756 24.8914L24.0837 25.6995L29.8917 19.8914C30.1358 19.6473 30.5315 19.6473 30.7756 19.8914Z" fill="white"/>
</svg>
