<svg width="44" height="44" viewBox="0 0 44 44" fill="none" xmlns="http://www.w3.org/2000/svg">
<rect width="44" height="44" rx="16" fill="#111111"/>
<path fill-rule="evenodd" clip-rule="evenodd" d="M14.5 13.875C14.8452 13.875 15.125 14.1548 15.125 14.5V27.8333C15.125 28.1096 15.2347 28.3746 15.4301 28.5699C15.6254 28.7653 15.8904 28.875 16.1667 28.875H29.5C29.8452 28.875 30.125 29.1548 30.125 29.5C30.125 29.8452 29.8452 30.125 29.5 30.125H16.1667C15.5589 30.125 14.976 29.8836 14.5462 29.4538C14.1164 29.024 13.875 28.4411 13.875 27.8333V14.5C13.875 14.1548 14.1548 13.875 14.5 13.875ZM25.3333 16.7917C25.2183 16.7917 25.125 16.8849 25.125 17V25.3333C25.125 25.4484 25.2183 25.5417 25.3333 25.5417H27C27.1151 25.5417 27.2083 25.4484 27.2083 25.3333V17C27.2083 16.8849 27.1151 16.7917 27 16.7917H25.3333ZM23.875 17C23.875 16.1946 24.5279 15.5417 25.3333 15.5417H27C27.8054 15.5417 28.4583 16.1946 28.4583 17V25.3333C28.4583 26.1387 27.8054 26.7917 27 26.7917H25.3333C24.5279 26.7917 23.875 26.1387 23.875 25.3333V17ZM18.6667 19.2917C18.5516 19.2917 18.4583 19.3849 18.4583 19.5V25.3333C18.4583 25.4484 18.5516 25.5417 18.6667 25.5417H20.3333C20.4484 25.5417 20.5417 25.4484 20.5417 25.3333V19.5C20.5417 19.3849 20.4484 19.2917 20.3333 19.2917H18.6667ZM17.2083 19.5C17.2083 18.6946 17.8613 18.0417 18.6667 18.0417H20.3333C21.1387 18.0417 21.7917 18.6946 21.7917 19.5V25.3333C21.7917 26.1387 21.1387 26.7917 20.3333 26.7917H18.6667C17.8613 26.7917 17.2083 26.1387 17.2083 25.3333V19.5Z" fill="white"/>
</svg>
