<svg width="32" height="32" viewBox="0 0 32 32" fill="none" xmlns="http://www.w3.org/2000/svg">
<path d="M12 0.5H20C26.3513 0.5 31.5 5.64873 31.5 12V20C31.5 26.3513 26.3513 31.5 20 31.5H12C5.64873 31.5 0.5 26.3513 0.5 20V12C0.5 5.64873 5.64873 0.5 12 0.5Z" fill="white"/>
<path d="M12 0.5H20C26.3513 0.5 31.5 5.64873 31.5 12V20C31.5 26.3513 26.3513 31.5 20 31.5H12C5.64873 31.5 0.5 26.3513 0.5 20V12C0.5 5.64873 5.64873 0.5 12 0.5Z" stroke="#D3DBED"/>
<g clip-path="url(#clip0_85_5557)">
<path fill-rule="evenodd" clip-rule="evenodd" d="M19.4933 8.72099C19.9953 8.21909 20.6761 7.93717 21.386 7.93726C22.0959 7.93734 22.7767 8.21943 23.2786 8.72147C23.7805 9.2235 24.0625 9.90436 24.0624 10.6143C24.0623 11.3241 23.7802 12.0049 23.2782 12.5068C23.2782 12.5068 23.2783 12.5067 23.2782 12.5068L21.7066 14.0786C21.6891 14.1028 21.6695 14.126 21.6477 14.1478C21.6259 14.1696 21.6028 14.1892 21.5786 14.2067L13.2673 22.5192C13.0282 22.7575 12.7343 22.9335 12.4114 23.0317L9.14488 24.0222C8.9828 24.071 8.81055 24.0749 8.64642 24.0336C8.48229 23.9924 8.33239 23.9074 8.21262 23.7879C8.09285 23.6683 8.00769 23.5185 7.96616 23.3545C7.92463 23.1904 7.92829 23.0181 7.97675 22.856L7.97745 22.8537L8.9682 19.5897L8.96866 19.5881C9.06774 19.265 9.24469 18.9712 9.48397 18.7325C9.48386 18.7326 9.48407 18.7324 9.48397 18.7325L17.7936 10.421C17.811 10.397 17.8305 10.374 17.8522 10.3523C17.8738 10.3307 17.8968 10.3112 17.9208 10.2938L19.4933 8.72099ZM18.2551 11.5506L10.2786 19.5289C10.1699 19.6372 10.0895 19.7706 10.0444 19.9173C10.0444 19.9175 10.0445 19.9171 10.0444 19.9173L9.15632 22.8432L12.084 21.9554C12.2308 21.9108 12.3643 21.8308 12.473 21.7225C12.4729 21.7226 12.473 21.7225 12.473 21.7225L20.4494 13.7449L18.2551 11.5506ZM21.2448 12.9494L19.0505 10.7551L20.2886 9.51659C20.5797 9.22563 20.9744 9.0622 21.3859 9.06226C21.7974 9.06231 22.1921 9.22584 22.483 9.51686C22.774 9.80789 22.9374 10.2026 22.9374 10.6141C22.9373 11.0256 22.7738 11.4203 22.4828 11.7112L21.2448 12.9494Z" fill="#111111"/>
</g>
<defs>
<clipPath id="clip0_85_5557">
<rect width="18" height="18" fill="white" transform="translate(7 7)"/>
</clipPath>
</defs>
</svg>
