<svg width="17" height="17" viewBox="0 0 17 17" fill="none" xmlns="http://www.w3.org/2000/svg">
<path d="M15.0105 2.58382C15.0105 2.34068 14.9139 2.10715 14.742 1.93522C14.5701 1.7634 14.3372 1.66675 14.0942 1.66667C13.8511 1.66667 13.6175 1.7633 13.4456 1.93522L13.4448 1.93604L12.867 2.51139L14.165 3.80941L14.742 3.23161C14.9138 3.05978 15.0104 2.82682 15.0105 2.58382ZM6.67721 8.6792V10H7.99801L12.9891 4.99023L11.6862 3.68734L6.67721 8.6792ZM16.6772 2.58382C16.6771 3.26829 16.4048 3.92409 15.9212 4.40837L14.8641 5.46956C14.8354 5.51143 14.8036 5.552 14.7664 5.58919C14.7308 5.62481 14.6916 5.65496 14.6517 5.68278L8.93389 11.4217C8.77754 11.5785 8.56532 11.6667 8.34388 11.6667H5.84388C5.38364 11.6667 5.01055 11.2936 5.01055 10.8333V8.33333C5.01057 8.11193 5.09872 7.89965 5.2555 7.74333L10.9912 2.02718C11.0194 1.98629 11.0516 1.9472 11.088 1.91081C11.1253 1.87352 11.1657 1.84108 11.2077 1.81234L12.268 0.756022C12.7524 0.272022 13.4094 0 14.0942 0C14.7792 8.62754e-05 15.436 0.272455 15.9204 0.756836C16.4049 1.24132 16.6772 1.89866 16.6772 2.58382Z" fill="#A94DFA"/>
<path d="M5.72594 3.39989C6.18158 3.33498 6.60422 3.65227 6.66914 4.1079C6.73382 4.56339 6.41664 4.98538 5.96113 5.05028C4.70825 5.22888 3.56969 5.87598 2.7751 6.86099C1.98054 7.84602 1.58915 9.0956 1.67972 10.3579C1.77034 11.6202 2.33626 12.8013 3.26338 13.6628C4.19058 14.5242 5.41001 15.0021 6.67565 14.9998H6.67728C7.8797 15 9.04221 14.5671 9.9512 13.7799C10.8601 12.9928 11.4551 11.9044 11.6268 10.7143C11.6926 10.2589 12.1153 9.94304 12.5708 10.0088C13.0261 10.0747 13.3421 10.4974 13.2764 10.9528C13.0473 12.5395 12.2536 13.9903 11.0417 15.0397C9.82996 16.089 8.28095 16.6656 6.67809 16.6657L6.6789 16.6665C4.99139 16.6695 3.36522 16.0329 2.12894 14.8843C0.892659 13.7356 0.137972 12.1607 0.017121 10.4775C-0.103712 8.79433 0.41837 7.1279 1.4779 5.81445C2.53737 4.50107 4.05541 3.63801 5.72594 3.39989Z" fill="#A94DFA"/>
</svg>
