<svg width="17" height="12" viewBox="0 0 17 12" fill="none" xmlns="http://www.w3.org/2000/svg">
<path fill-rule="evenodd" clip-rule="evenodd" d="M8.06288 1.125C6.57756 1.125 5.12569 1.56603 3.89132 2.39217C2.66063 3.21586 1.70141 4.3854 1.13445 5.75327C1.12185 5.79143 1.12185 5.83264 1.13445 5.87081C1.70141 7.23867 2.66063 8.40821 3.89132 9.2319C5.12569 10.058 6.57756 10.4991 8.06288 10.4991C9.5482 10.4991 11.0001 10.058 12.2344 9.2319C13.4651 8.40821 14.4243 7.23868 14.9913 5.87082C15.0039 5.83265 15.0039 5.79143 14.9913 5.75326C14.4243 4.3854 13.4651 3.21586 12.2344 2.39217C11.0001 1.56603 9.5482 1.125 8.06288 1.125ZM3.26559 1.45725C4.68511 0.507183 6.35476 0 8.06288 0C9.771 0 11.4406 0.507183 12.8602 1.45725C14.2797 2.40732 15.3851 3.75748 16.0364 5.33658C16.0389 5.34277 16.0414 5.34901 16.0437 5.35529C16.1531 5.64996 16.1531 5.97411 16.0437 6.26879C16.0414 6.27507 16.0389 6.28131 16.0364 6.2875C15.3851 7.86659 14.2797 9.21676 12.8602 10.1668C11.4406 11.1169 9.771 11.6241 8.06288 11.6241C6.35476 11.6241 4.68511 11.1169 3.26559 10.1668C1.84607 9.21676 0.740615 7.86659 0.0893675 6.2875C0.0868132 6.28131 0.0843698 6.27507 0.0820385 6.26879C-0.0273462 5.97411 -0.0273462 5.64996 0.0820385 5.35529C0.0843698 5.34901 0.0868132 5.34277 0.0893675 5.33658C0.740615 3.75748 1.84607 2.40732 3.26559 1.45725ZM8.06288 4.12454C7.1309 4.12454 6.37538 4.88006 6.37538 5.81204C6.37538 6.74402 7.1309 7.49954 8.06288 7.49954C8.99486 7.49954 9.75038 6.74402 9.75038 5.81204C9.75038 4.88006 8.99486 4.12454 8.06288 4.12454ZM5.25038 5.81204C5.25038 4.25874 6.50958 2.99954 8.06288 2.99954C9.61618 2.99954 10.8754 4.25874 10.8754 5.81204C10.8754 7.36534 9.61618 8.62454 8.06288 8.62454C6.50958 8.62454 5.25038 7.36534 5.25038 5.81204Z" fill="#111111"/>
</svg>
