<svg width="18" height="18" viewBox="0 0 18 18" fill="none" xmlns="http://www.w3.org/2000/svg">
<path fill-rule="evenodd" clip-rule="evenodd" d="M7.04605 3.03741C6.46626 2.39319 5.84102 2.1148 5.26089 2.12491L5.25 2.1251C4.86323 2.1251 4.49229 2.27865 4.2188 2.55214C3.94531 2.82563 3.79167 3.19656 3.79167 3.58334C3.79167 3.97011 3.94531 4.34104 4.2188 4.61453C4.49229 4.88802 4.86323 5.04167 5.25 5.04167H8.16679C7.88267 4.21996 7.49489 3.53611 7.04605 3.03741ZM8.375 6.29167V8.375H3.16767C3.16734 8.375 3.167 8.375 3.16667 8.375C3.16633 8.375 3.16599 8.375 3.16566 8.375H2.33333C2.21827 8.375 2.125 8.28173 2.125 8.16667V6.5C2.125 6.38494 2.21827 6.29167 2.33333 6.29167H8.375ZM2.96781 5.04167C2.69169 4.60954 2.54167 4.10417 2.54167 3.58334C2.54167 2.86504 2.82701 2.17617 3.33492 1.66825C3.84154 1.16164 4.5282 0.876457 5.24451 0.875008C6.27011 0.858952 7.21844 1.36039 7.97517 2.2012C8.37369 2.644 8.71736 3.17739 9 3.77588C9.28264 3.17739 9.62631 2.644 10.0248 2.2012C10.7816 1.36039 11.7299 0.858951 12.7555 0.875008C13.4718 0.876457 14.1585 1.16164 14.6651 1.66825C15.173 2.17617 15.4583 2.86504 15.4583 3.58334C15.4583 4.10417 15.3083 4.60954 15.0322 5.04167H15.6667C16.4721 5.04167 17.125 5.69459 17.125 6.5V8.16667C17.125 8.97208 16.4721 9.625 15.6667 9.625H15.4583V14.8333C15.4583 15.4411 15.2169 16.024 14.7871 16.4538C14.3573 16.8836 13.7745 17.125 13.1667 17.125H4.83333C4.22555 17.125 3.64265 16.8836 3.21288 16.4538C2.78311 16.024 2.54167 15.4411 2.54167 14.8333V9.625H2.33333C1.52792 9.625 0.875 8.97208 0.875 8.16667V6.5C0.875 5.69459 1.52792 5.04167 2.33333 5.04167H2.96781ZM3.79167 9.625V14.8333C3.79167 15.1096 3.90141 15.3746 4.09676 15.5699C4.29211 15.7653 4.55707 15.875 4.83333 15.875H8.375V9.625H3.79167ZM9.625 9.625V15.875H13.1667C13.4429 15.875 13.7079 15.7653 13.9032 15.5699C14.0986 15.3746 14.2083 15.1096 14.2083 14.8333V9.625H9.625ZM14.8323 8.375C14.8327 8.375 14.833 8.375 14.8333 8.375C14.8337 8.375 14.834 8.375 14.8343 8.375H15.6667C15.7817 8.375 15.875 8.28173 15.875 8.16667V6.5C15.875 6.38494 15.7817 6.29167 15.6667 6.29167H9.625V8.375H14.8323ZM12.75 5.04167C13.1368 5.04167 13.5077 4.88802 13.7812 4.61453C14.0547 4.34104 14.2083 3.97011 14.2083 3.58334C14.2083 3.19656 14.0547 2.82563 13.7812 2.55214C13.5077 2.27865 13.1368 2.125 12.75 2.125H12.7391C12.159 2.11489 11.5337 2.39319 10.9539 3.03741C10.5051 3.53611 10.1173 4.21996 9.83321 5.04167H12.75Z" fill="#A937F4"/>
</svg>
