<svg width="20" height="21" viewBox="0 0 20 21" fill="none" xmlns="http://www.w3.org/2000/svg">
<path fill-rule="evenodd" clip-rule="evenodd" d="M9.99984 2.79169C5.74264 2.79169 2.2915 6.24283 2.2915 10.5C2.2915 14.7572 5.74264 18.2084 9.99984 18.2084C14.257 18.2084 17.7082 14.7572 17.7082 10.5C17.7082 6.24283 14.257 2.79169 9.99984 2.79169ZM1.0415 10.5C1.0415 5.55247 5.05229 1.54169 9.99984 1.54169C14.9474 1.54169 18.9582 5.55247 18.9582 10.5C18.9582 15.4476 14.9474 19.4584 9.99984 19.4584C5.05229 19.4584 1.0415 15.4476 1.0415 10.5ZM9.37484 7.16669C9.37484 6.82151 9.65466 6.54169 9.99984 6.54169H10.0082C10.3533 6.54169 10.6332 6.82151 10.6332 7.16669C10.6332 7.51187 10.3533 7.79169 10.0082 7.79169H9.99984C9.65466 7.79169 9.37484 7.51187 9.37484 7.16669ZM9.99984 9.87502C10.345 9.87502 10.6248 10.1548 10.6248 10.5V13.8334C10.6248 14.1785 10.345 14.4584 9.99984 14.4584C9.65466 14.4584 9.37484 14.1785 9.37484 13.8334V10.5C9.37484 10.1548 9.65466 9.87502 9.99984 9.87502Z" fill="#225DFF"/>
</svg>
