<svg width="15" height="15" viewBox="0 0 15 15" fill="none" xmlns="http://www.w3.org/2000/svg">
<path d="M7.33333 12C7.51014 12 7.67971 12.0702 7.80474 12.1953C7.92976 12.3203 8 12.4899 8 12.6667V14C8 14.1768 7.92976 14.3464 7.80474 14.4714C7.67971 14.5964 7.51014 14.6667 7.33333 14.6667C7.15652 14.6667 6.98695 14.5964 6.86193 14.4714C6.7369 14.3464 6.66667 14.1768 6.66667 14V12.6667C6.66667 12.4899 6.7369 12.3203 6.86193 12.1953C6.98695 12.0702 7.15652 12 7.33333 12ZM4.03333 10.6333C4.15831 10.7584 4.22852 10.9279 4.22852 11.1047C4.22852 11.2814 4.15831 11.451 4.03333 11.576L3.09067 12.5187C3.02917 12.5823 2.95561 12.6331 2.87427 12.6681C2.79293 12.703 2.70545 12.7214 2.61693 12.7222C2.52841 12.7229 2.44063 12.7061 2.3587 12.6725C2.27677 12.639 2.20233 12.5895 2.13974 12.5269C2.07714 12.4643 2.02764 12.3899 1.99412 12.308C1.9606 12.226 1.94373 12.1383 1.9445 12.0497C1.94527 11.9612 1.96366 11.8737 1.9986 11.7924C2.03354 11.7111 2.08433 11.6375 2.148 11.576L3.09067 10.6333C3.21569 10.5084 3.38522 10.4381 3.562 10.4381C3.73878 10.4381 3.90832 10.5084 4.03333 10.6333ZM11.576 10.6333L12.5187 11.576C12.6401 11.7017 12.7073 11.8701 12.7058 12.0449C12.7043 12.2197 12.6342 12.3869 12.5105 12.5105C12.3869 12.6342 12.2197 12.7043 12.0449 12.7058C11.8701 12.7073 11.7017 12.6401 11.576 12.5187L10.6333 11.576C10.5119 11.4503 10.4447 11.2819 10.4462 11.1071C10.4477 10.9323 10.5178 10.7651 10.6415 10.6415C10.7651 10.5178 10.9323 10.4477 11.1071 10.4462C11.2819 10.4447 11.4503 10.5119 11.576 10.6333ZM8.21 4.076C8.63546 4.185 9.03518 4.377 9.3862 4.64097C9.73721 4.90494 10.0326 5.23568 10.2554 5.61418C10.4782 5.99267 10.624 6.41146 10.6844 6.84648C10.7448 7.28151 10.7187 7.72418 10.6075 8.14906C10.4963 8.57395 10.3022 8.97267 10.0364 9.32231C9.7706 9.67195 9.43833 9.96562 9.05868 10.1864C8.67904 10.4073 8.25949 10.5509 7.82416 10.609C7.38883 10.6672 6.9463 10.6387 6.522 10.5253C5.67083 10.2978 4.94435 9.74258 4.50137 8.98098C4.0584 8.21938 3.93496 7.31338 4.15805 6.46104C4.38113 5.6087 4.93259 4.87934 5.69188 4.43242C6.45116 3.98549 7.35651 3.85735 8.21 4.076ZM2 6.66667C2.17681 6.66667 2.34638 6.7369 2.4714 6.86193C2.59643 6.98695 2.66667 7.15652 2.66667 7.33333C2.66667 7.51014 2.59643 7.67971 2.4714 7.80474C2.34638 7.92976 2.17681 8 2 8H0.666667C0.489856 8 0.320286 7.92976 0.195262 7.80474C0.0702379 7.67971 0 7.51014 0 7.33333C0 7.15652 0.0702379 6.98695 0.195262 6.86193C0.320286 6.7369 0.489856 6.66667 0.666667 6.66667H2ZM14 6.66667C14.1768 6.66667 14.3464 6.7369 14.4714 6.86193C14.5964 6.98695 14.6667 7.15652 14.6667 7.33333C14.6667 7.51014 14.5964 7.67971 14.4714 7.80474C14.3464 7.92976 14.1768 8 14 8H12.6667C12.4899 8 12.3203 7.92976 12.1953 7.80474C12.0702 7.67971 12 7.51014 12 7.33333C12 7.15652 12.0702 6.98695 12.1953 6.86193C12.3203 6.7369 12.4899 6.66667 12.6667 6.66667H14ZM3.09067 2.148L4.03333 3.09067C4.15477 3.2164 4.22197 3.3848 4.22045 3.5596C4.21893 3.7344 4.14882 3.90161 4.02521 4.02521C3.90161 4.14882 3.7344 4.21893 3.5596 4.22045C3.3848 4.22197 3.2164 4.15477 3.09067 4.03333L2.148 3.09067C2.02656 2.96493 1.95937 2.79653 1.96088 2.62173C1.9624 2.44693 2.03252 2.27973 2.15612 2.15612C2.27973 2.03252 2.44693 1.9624 2.62173 1.96088C2.79653 1.95937 2.96493 2.02656 3.09067 2.148ZM12.5187 2.148C12.6436 2.27302 12.7139 2.44256 12.7139 2.61933C12.7139 2.79611 12.6436 2.96565 12.5187 3.09067L11.576 4.03333C11.4503 4.15477 11.2819 4.22197 11.1071 4.22045C10.9323 4.21893 10.7651 4.14882 10.6415 4.02521C10.5178 3.90161 10.4477 3.7344 10.4462 3.5596C10.4447 3.3848 10.5119 3.2164 10.6333 3.09067L11.576 2.148C11.701 2.02302 11.8706 1.95281 12.0473 1.95281C12.2241 1.95281 12.3936 2.02302 12.5187 2.148ZM7.33333 0C7.51014 0 7.67971 0.0702379 7.80474 0.195262C7.92976 0.320286 8 0.489856 8 0.666667V2C8 2.17681 7.92976 2.34638 7.80474 2.4714C7.67971 2.59643 7.51014 2.66667 7.33333 2.66667C7.15652 2.66667 6.98695 2.59643 6.86193 2.4714C6.7369 2.34638 6.66667 2.17681 6.66667 2V0.666667C6.66667 0.489856 6.7369 0.320286 6.86193 0.195262C6.98695 0.0702379 7.15652 0 7.33333 0Z" fill="#EE9035"/>
</svg>
