<svg width="10" height="10" viewBox="0 0 10 10" fill="none" xmlns="http://www.w3.org/2000/svg">
<path d="M8.1875 8.75V1.8125H1.25C0.93934 1.8125 0.6875 1.56066 0.6875 1.25C0.6875 0.93934 0.93934 0.6875 1.25 0.6875H8.75C9.06066 0.6875 9.3125 0.93934 9.3125 1.25V8.75C9.3125 9.06066 9.06066 9.3125 8.75 9.3125C8.43934 9.3125 8.1875 9.06066 8.1875 8.75Z" fill="#9A9A9A"/>
<path d="M8.35229 0.852295C8.57196 0.632625 8.92803 0.632625 9.14771 0.852295C9.36738 1.07196 9.36738 1.42804 9.14771 1.64771L1.64771 9.14771C1.42804 9.36738 1.07196 9.36738 0.852295 9.14771C0.632625 8.92803 0.632625 8.57196 0.852295 8.35229L8.35229 0.852295Z" fill="#9A9A9A"/>
</svg>
