<svg width="75" height="31" viewBox="0 0 75 31" fill="none" xmlns="http://www.w3.org/2000/svg">
<path d="M21.396 10.294H23.992C24.0213 10.4847 24.113 10.6533 24.267 10.8C24.4283 10.9393 24.6447 11.0493 24.916 11.13C25.1873 11.2033 25.5063 11.24 25.873 11.24C26.379 11.24 26.7713 11.1813 27.05 11.064C27.336 10.9467 27.479 10.767 27.479 10.525C27.479 10.3563 27.3983 10.2207 27.237 10.118C27.0757 10.008 26.7567 9.93467 26.28 9.898L24.828 9.777C23.64 9.689 22.7783 9.43233 22.243 9.007C21.715 8.57433 21.451 7.995 21.451 7.269C21.451 6.675 21.6233 6.18 21.968 5.784C22.3127 5.38067 22.793 5.07633 23.409 4.871C24.025 4.66567 24.751 4.563 25.587 4.563C26.3937 4.563 27.1087 4.67667 27.732 4.904C28.3627 5.13133 28.8613 5.454 29.228 5.872C29.602 6.28267 29.8073 6.763 29.844 7.313H27.248C27.2187 7.15167 27.1343 7.01233 26.995 6.895C26.863 6.77033 26.6723 6.675 26.423 6.609C26.1737 6.543 25.8767 6.51 25.532 6.51C25.0773 6.51 24.7143 6.565 24.443 6.675C24.179 6.785 24.047 6.95 24.047 7.17C24.047 7.33133 24.124 7.46333 24.278 7.566C24.4393 7.66867 24.7327 7.73833 25.158 7.775L26.753 7.907C27.545 7.96567 28.183 8.09033 28.667 8.281C29.1583 8.46433 29.514 8.71733 29.734 9.04C29.954 9.35533 30.064 9.755 30.064 10.239C30.064 10.8257 29.888 11.3427 29.536 11.79C29.184 12.23 28.689 12.5747 28.051 12.824C27.4203 13.066 26.6797 13.187 25.829 13.187C24.9563 13.187 24.19 13.066 23.53 12.824C22.87 12.582 22.353 12.2447 21.979 11.812C21.605 11.372 21.4107 10.866 21.396 10.294ZM33.7096 4.75V11.867L32.5546 10.723H38.7036V13H31.1466V4.75H33.7096ZM39.6437 4.75H42.2067V13H39.6437V4.75ZM52.9571 9.491C52.8691 10.2243 52.6124 10.8697 52.1871 11.427C51.7691 11.9843 51.2117 12.417 50.5151 12.725C49.8257 13.033 49.0337 13.187 48.1391 13.187C47.1711 13.187 46.3241 13.0073 45.5981 12.648C44.8721 12.2887 44.3074 11.7863 43.9041 11.141C43.5007 10.4957 43.2991 9.74033 43.2991 8.875C43.2991 8.00967 43.5007 7.25433 43.9041 6.609C44.3074 5.96367 44.8721 5.46133 45.5981 5.102C46.3241 4.74267 47.1711 4.563 48.1391 4.563C49.0337 4.563 49.8257 4.717 50.5151 5.025C51.2117 5.333 51.7691 5.76567 52.1871 6.323C52.6124 6.873 52.8691 7.51833 52.9571 8.259H50.3831C50.3097 7.94367 50.1741 7.676 49.9761 7.456C49.7854 7.22867 49.5361 7.05633 49.2281 6.939C48.9201 6.81433 48.5571 6.752 48.1391 6.752C47.6697 6.752 47.2664 6.83633 46.9291 7.005C46.5917 7.17367 46.3314 7.41933 46.1481 7.742C45.9647 8.05733 45.8731 8.435 45.8731 8.875C45.8731 9.315 45.9647 9.69267 46.1481 10.008C46.3314 10.3233 46.5917 10.569 46.9291 10.745C47.2664 10.9137 47.6697 10.998 48.1391 10.998C48.5571 10.998 48.9201 10.943 49.2281 10.833C49.5361 10.7157 49.7854 10.5433 49.9761 10.316C50.1741 10.0887 50.3097 9.81367 50.3831 9.491H52.9571ZM61.1358 7.973V9.777H55.0088V7.973H61.1358ZM56.7578 8.875L56.2408 12.065L55.2398 10.954H61.5208V13H53.6998L54.3158 8.875L53.6998 4.75H61.4658V6.796H55.2398L56.2408 5.685L56.7578 8.875ZM64.5319 8.314H67.4139C67.7366 8.314 67.9859 8.24067 68.1619 8.094C68.3452 7.94733 68.4369 7.73467 68.4369 7.456C68.4369 7.17733 68.3452 6.96467 68.1619 6.818C67.9859 6.67133 67.7366 6.598 67.4139 6.598H64.1689L65.3239 5.41V13H62.7609V4.75H67.7989C68.4369 4.75 68.9979 4.86367 69.4819 5.091C69.9659 5.31833 70.3436 5.63367 70.6149 6.037C70.8862 6.44033 71.0219 6.91333 71.0219 7.456C71.0219 7.984 70.8862 8.45333 70.6149 8.864C70.3436 9.26733 69.9659 9.58267 69.4819 9.81C68.9979 10.03 68.4369 10.14 67.7989 10.14H64.5319V8.314ZM65.6319 9.139H68.4809L71.3189 13H68.3819L65.6319 9.139Z" fill="white"/>
<path d="M24.278 19.861H26.841V27H24.278V19.861ZM21.22 18.75H29.899V21.027H21.22V18.75ZM35.1436 27.187C34.1536 27.187 33.2846 27.0073 32.5366 26.648C31.7959 26.2887 31.2166 25.7863 30.7986 25.141C30.3879 24.4957 30.1826 23.7403 30.1826 22.875C30.1826 22.0097 30.3879 21.2543 30.7986 20.609C31.2166 19.9637 31.7959 19.4613 32.5366 19.102C33.2846 18.7427 34.1536 18.563 35.1436 18.563C36.1336 18.563 36.9989 18.7427 37.7396 19.102C38.4876 19.4613 39.0669 19.9637 39.4776 20.609C39.8956 21.2543 40.1046 22.0097 40.1046 22.875C40.1046 23.7403 39.8956 24.4957 39.4776 25.141C39.0669 25.7863 38.4876 26.2887 37.7396 26.648C36.9989 27.0073 36.1336 27.187 35.1436 27.187ZM35.1436 24.91C35.6349 24.91 36.0566 24.8293 36.4086 24.668C36.7679 24.4993 37.0429 24.2647 37.2336 23.964C37.4243 23.656 37.5196 23.293 37.5196 22.875C37.5196 22.457 37.4243 22.0977 37.2336 21.797C37.0429 21.489 36.7679 21.2543 36.4086 21.093C36.0566 20.9243 35.6349 20.84 35.1436 20.84C34.6523 20.84 34.2269 20.9243 33.8676 21.093C33.5156 21.2543 33.2443 21.489 33.0536 21.797C32.8629 22.0977 32.7676 22.457 32.7676 22.875C32.7676 23.293 32.8629 23.656 33.0536 23.964C33.2443 24.2647 33.5156 24.4993 33.8676 24.668C34.2269 24.8293 34.6523 24.91 35.1436 24.91ZM41.1906 27V18.75H43.7316V24.987L43.0716 24.448L47.4606 18.75H50.1446L43.5116 27H41.1906ZM45.1396 23.139L47.0206 21.621L50.2656 27H47.3616L45.1396 23.139Z" fill="#A94DFA"/>
<path d="M3.70972 12.0954L0 14.3702V4.74006C0 3.22351 0.222583 2.46523 1.4097 1.47947C2.35938 0.690856 3.93231 1.04977 4.60006 1.32781L13.0582 6.40828C13.6271 6.78741 14.8092 8.21298 14.9873 10.8821C15.1654 13.5513 13.4292 15.3307 12.5389 15.8868L5.04522 20.5881L7.19686 21.8013C9.24958 20.4617 13.5182 17.6915 14.1711 17.3275C14.8241 16.9635 14.9378 17.7825 14.9131 18.2374V20.5123C14.9724 22.5748 13.5529 24.1014 12.8356 24.607L8.68075 27.1851C6.7517 28.3984 4.37747 30.1424 2.96778 29.9907C0.593556 29.9301 0 27.7412 0 26.6543V17.7066C0 17.1 0.346241 16.7461 0.519361 16.645L9.94206 10.8821L3.70972 7.09073V12.0954Z" fill="#A94DFA"/>
</svg>
