<svg width="1120" height="88" viewBox="0 0 1120 88" fill="none" xmlns="http://www.w3.org/2000/svg">
<path d="M63.5596 2.01758C83.6942 2.01759 100.298 4.63315 113.37 9.86328L112.694 40.3477L112.018 41.2441C97.142 36.014 81.5902 33.3984 65.3623 33.3984C57.5489 33.3984 51.5383 33.8475 47.3311 34.7441C43.124 35.4913 40.1938 36.7616 38.541 38.5547C36.8884 40.3479 36.0615 42.8885 36.0615 46.1758C36.0616 49.4631 36.5879 51.9286 37.6396 53.5723C38.8417 55.216 41.171 56.4862 44.627 57.3828C48.0829 58.13 53.1164 58.8769 59.7275 59.624L73.9277 61.1934C85.9483 62.5383 95.1893 64.9293 101.65 68.3662C108.111 71.8032 112.544 76.4358 114.948 82.2637C115.67 83.8691 116.29 85.5763 116.808 87.3848H37.8252C29.4508 86.1498 22.627 84.0692 17.3545 81.1426C11.0437 77.5562 6.53568 72.7741 3.83105 66.7969C1.27675 60.6702 0 53.3476 0 44.8301C4.97623e-05 34.6688 2.02805 26.45 6.08496 20.1738C10.2922 13.8977 17.0541 9.34022 26.3701 6.50098C35.6862 3.51231 48.0829 2.01758 63.5596 2.01758ZM177.483 87.3848H141.421V4.03418H177.483V87.3848ZM296.987 87.3848H260.925V4.03418H296.987V87.3848ZM384.727 2.01758C394.193 2.01758 402.382 2.39152 409.294 3.13867C416.206 3.7364 423.268 4.85724 430.48 6.50098V35.6406L429.805 36.0889C423.494 34.5945 417.408 33.5479 411.548 32.9502C405.688 32.2031 398.476 31.8301 389.911 31.8301C382.999 31.8301 377.289 32.3524 372.781 33.3984C368.424 34.295 364.967 36.1637 362.413 39.0029C359.859 41.8421 358.056 46.026 357.004 51.5547C356.102 57.0837 355.651 64.4812 355.651 73.7461C355.651 78.7976 355.775 83.3437 356.019 87.3848H319.929C319.703 83.1153 319.59 78.5691 319.59 73.7461C319.59 59.1016 320.717 47.0715 322.971 37.6572C325.225 28.2432 328.831 20.9957 333.789 15.915C338.898 10.6849 345.584 7.09888 353.849 5.15625C362.263 3.0642 372.556 2.01759 384.727 2.01758ZM555.492 33.1738H485.621V60.0723H546.251V87.3848H449.56V4.03418H555.492V33.1738ZM639.379 4.03418C657.26 4.03418 670.257 8.06933 678.371 16.1387C686.635 24.0586 690.768 35.7891 690.768 51.3301C690.768 62.9859 687.838 72.9979 681.978 81.3662C680.386 83.5988 678.654 85.6043 676.785 87.3848H571.312V4.03418H639.379ZM829.199 32.2783H788.629V87.3848H752.567V32.2783H711.997V2.01758H829.199V32.2783ZM910.569 0C924.243 0 935.588 1.27017 944.604 3.81055C953.619 6.35092 960.757 10.4602 966.016 16.1387C971.275 21.8171 974.956 29.3641 977.06 38.7783C979.313 48.0431 980.44 59.3999 980.44 72.8486C980.44 77.9934 980.279 82.8389 979.956 87.3848H943.761C944.172 83.134 944.378 78.2885 944.378 72.8486C944.378 62.0896 943.551 53.7214 941.898 47.7441C940.246 41.7668 937.015 37.5823 932.207 35.1914C927.399 32.651 920.186 31.3809 910.569 31.3809C901.103 31.3809 893.891 32.6512 888.933 35.1914C884.124 37.5823 880.819 41.7668 879.016 47.7441C877.363 53.7214 876.536 62.0895 876.536 72.8486C876.536 78.2885 876.741 83.134 877.152 87.3848H840.958C840.635 82.8389 840.474 77.9934 840.474 72.8486C840.474 54.7673 842.503 40.4213 846.56 29.8115C850.767 19.2021 857.904 11.5806 867.971 6.94824C878.188 2.31582 892.388 2.47047e-05 910.569 0ZM1039.09 61.418H1039.76C1041.26 61.418 1042.99 60.2219 1044.95 57.8311C1047.05 55.4401 1048.93 53.0491 1050.58 50.6582L1080.78 2.01758H1120V2.69043L1094.31 43.9336C1092.05 47.6694 1089.5 51.7045 1086.64 56.0381C1083.79 60.222 1080.93 63.9577 1078.08 67.2451C1075.37 70.3832 1072.97 72.3261 1070.87 73.0732V73.7461C1072.97 74.6427 1075.37 76.5855 1078.08 79.5742C1080.36 81.8435 1082.64 84.4473 1084.92 87.3848H1044.47C1042.89 85.9143 1041.47 85.1779 1040.21 85.1777H1039.09V87.3848H1003.02V2.01758H1039.09V61.418ZM607.374 71.2793H633.519C641.031 71.2793 646.216 69.7855 649.071 66.7969C652.076 63.8082 653.579 58.951 653.579 52.2266C653.579 45.5024 652.076 40.6459 649.071 37.6572C646.216 34.6686 641.031 33.1738 633.519 33.1738H607.374V71.2793Z" fill="#F7E9FF" fill-opacity="0.06"/>
</svg>
