<svg width="75" height="31" viewBox="0 0 75 31" fill="none" xmlns="http://www.w3.org/2000/svg">
<path d="M21.385 10.283H24.267C24.2963 10.4443 24.3807 10.5837 24.52 10.701C24.6593 10.811 24.85 10.899 25.092 10.965C25.334 11.0237 25.6237 11.053 25.961 11.053C26.401 11.053 26.742 11.009 26.984 10.921C27.2333 10.833 27.358 10.69 27.358 10.492C27.358 10.36 27.2883 10.25 27.149 10.162C27.0097 10.0667 26.7237 10.0043 26.291 9.975L24.927 9.887C23.6877 9.80633 22.793 9.54233 22.243 9.095C21.693 8.64767 21.418 8.05733 21.418 7.324C21.418 6.708 21.594 6.19467 21.946 5.784C22.298 5.37333 22.7893 5.06533 23.42 4.86C24.058 4.65467 24.8023 4.552 25.653 4.552C26.4817 4.552 27.215 4.66933 27.853 4.904C28.4983 5.13133 29.008 5.454 29.382 5.872C29.7633 6.29 29.9723 6.77767 30.009 7.335H27.127C27.105 7.203 27.0317 7.08933 26.907 6.994C26.7897 6.89867 26.621 6.82533 26.401 6.774C26.181 6.72267 25.9133 6.697 25.598 6.697C25.1947 6.697 24.8757 6.73733 24.641 6.818C24.4137 6.89867 24.3 7.03067 24.3 7.214C24.3 7.33867 24.366 7.445 24.498 7.533C24.6373 7.621 24.9013 7.67967 25.29 7.709L26.83 7.808C27.6367 7.85933 28.2893 7.98033 28.788 8.171C29.2867 8.35433 29.6497 8.611 29.877 8.941C30.1117 9.271 30.229 9.678 30.229 10.162C30.229 10.7707 30.0493 11.3023 29.69 11.757C29.3307 12.2117 28.8247 12.5673 28.172 12.824C27.5267 13.0733 26.7713 13.198 25.906 13.198C25.0113 13.198 24.2267 13.077 23.552 12.835C22.8773 12.593 22.3493 12.252 21.968 11.812C21.594 11.372 21.3997 10.8623 21.385 10.283Z" fill="#111111"/>
<path d="M34.0693 4.75V11.746L32.7933 10.47H38.9313V13H31.2313V4.75H34.0693Z" fill="#111111"/>
<path d="M39.825 4.75H42.663V13H39.825V4.75Z" fill="#111111"/>
<path d="M53.4643 9.425C53.3763 10.1803 53.1159 10.8403 52.6833 11.405C52.2579 11.9697 51.6933 12.4097 50.9893 12.725C50.2853 13.0403 49.4786 13.198 48.5693 13.198C47.5866 13.198 46.7286 13.0183 45.9953 12.659C45.2619 12.2997 44.6899 11.7973 44.2793 11.152C43.8759 10.4993 43.6743 9.74033 43.6743 8.875C43.6743 8.00967 43.8759 7.25433 44.2793 6.609C44.6899 5.95633 45.2619 5.45033 45.9953 5.091C46.7286 4.73167 47.5866 4.552 48.5693 4.552C49.4786 4.552 50.2853 4.70967 50.9893 5.025C51.6933 5.34033 52.2579 5.78033 52.6833 6.345C53.1159 6.90967 53.3763 7.56967 53.4643 8.325H50.6153C50.5493 8.039 50.4283 7.797 50.2523 7.599C50.0763 7.39367 49.8453 7.23967 49.5593 7.137C49.2806 7.027 48.9506 6.972 48.5693 6.972C48.1439 6.972 47.7773 7.049 47.4693 7.203C47.1686 7.34967 46.9376 7.566 46.7763 7.852C46.6149 8.138 46.5343 8.479 46.5343 8.875C46.5343 9.271 46.6149 9.612 46.7763 9.898C46.9376 10.1767 47.1686 10.393 47.4693 10.547C47.7773 10.701 48.1439 10.778 48.5693 10.778C48.9506 10.778 49.2806 10.7303 49.5593 10.635C49.8453 10.5323 50.0763 10.382 50.2523 10.184C50.4283 9.97867 50.5493 9.72567 50.6153 9.425H53.4643Z" fill="#111111"/>
<path d="M61.7075 7.896V9.854H55.4925V7.896H61.7075ZM57.4395 8.875L56.9335 11.944L55.8555 10.756H62.1145V13H54.1285L54.7335 8.875L54.1285 4.75H62.0595V6.994H55.8555L56.9335 5.806L57.4395 8.875Z" fill="#111111"/>
<path d="M65.2332 8.281H68.0052C68.2839 8.281 68.5002 8.215 68.6542 8.083C68.8082 7.951 68.8852 7.76033 68.8852 7.511C68.8852 7.26167 68.8082 7.071 68.6542 6.939C68.5002 6.807 68.2839 6.741 68.0052 6.741H64.8372L66.1132 5.465V13H63.2752V4.75H68.4452C69.1052 4.75 69.6809 4.86733 70.1722 5.102C70.6709 5.32933 71.0559 5.64833 71.3272 6.059C71.6059 6.46967 71.7452 6.95367 71.7452 7.511C71.7452 8.05367 71.6059 8.534 71.3272 8.952C71.0559 9.36267 70.6709 9.68167 70.1722 9.909C69.6809 10.1363 69.1052 10.25 68.4452 10.25H65.2332V8.281ZM66.2012 9.139H69.3362L72.0752 13H68.8302L66.2012 9.139Z" fill="#111111"/>
<path d="M24.201 19.971H27.039V27H24.201V19.971ZM21.231 18.75H30.009V21.28H21.231V18.75Z" fill="#912DE4"/>
<path d="M35.327 27.198C34.3223 27.198 33.4423 27.0183 32.687 26.659C31.939 26.2997 31.356 25.7973 30.938 25.152C30.52 24.4993 30.311 23.7403 30.311 22.875C30.311 22.0097 30.52 21.2543 30.938 20.609C31.356 19.9563 31.939 19.4503 32.687 19.091C33.4423 18.7317 34.3223 18.552 35.327 18.552C36.3316 18.552 37.208 18.7317 37.956 19.091C38.7113 19.4503 39.298 19.9563 39.716 20.609C40.134 21.2543 40.343 22.0097 40.343 22.875C40.343 23.7403 40.134 24.4993 39.716 25.152C39.298 25.7973 38.7113 26.2997 37.956 26.659C37.208 27.0183 36.3316 27.198 35.327 27.198ZM35.327 24.668C35.7743 24.668 36.1593 24.5983 36.482 24.459C36.8046 24.3123 37.0503 24.107 37.219 23.843C37.395 23.5717 37.483 23.249 37.483 22.875C37.483 22.501 37.395 22.182 37.219 21.918C37.0503 21.6467 36.8046 21.4413 36.482 21.302C36.1593 21.1553 35.7743 21.082 35.327 21.082C34.8796 21.082 34.4946 21.1553 34.172 21.302C33.8493 21.4413 33.6 21.6467 33.424 21.918C33.2553 22.182 33.171 22.501 33.171 22.875C33.171 23.249 33.2553 23.5717 33.424 23.843C33.6 24.107 33.8493 24.3123 34.172 24.459C34.4946 24.5983 34.8796 24.668 35.327 24.668Z" fill="#912DE4"/>
<path d="M41.3504 27V18.75H44.1664V24.789L43.4514 24.184L47.5544 18.75H50.5244L43.9244 27H41.3504ZM45.3104 23.205L47.4004 21.566L50.6344 27H47.4224L45.3104 23.205Z" fill="#912DE4"/>
<path d="M3.70972 12.0954L0 14.3702V4.74006C0 3.22351 0.222583 2.46523 1.4097 1.47947C2.35938 0.690856 3.93231 1.04977 4.60006 1.32781L13.0582 6.40828C13.6271 6.78741 14.8092 8.21298 14.9873 10.8821C15.1654 13.5513 13.4292 15.3307 12.5389 15.8868L5.04522 20.5881L7.19686 21.8013C9.24958 20.4617 13.5182 17.6915 14.1711 17.3275C14.8241 16.9635 14.9378 17.7825 14.9131 18.2374V20.5123C14.9724 22.5748 13.5529 24.1014 12.8356 24.607L8.68075 27.1851C6.7517 28.3984 4.37747 30.1424 2.96778 29.9907C0.593556 29.9301 0 27.7412 0 26.6543V17.7066C0 17.1 0.346241 16.7461 0.519361 16.645L9.94206 10.8821L3.70972 7.09073V12.0954Z" fill="#912DE4"/>
</svg>
