<svg width="17" height="17" viewBox="0 0 17 17" fill="none" xmlns="http://www.w3.org/2000/svg">
<path fill-rule="evenodd" clip-rule="evenodd" d="M4.69963 2.08407C6.10822 1.05772 7.83707 0.568218 9.57464 0.703772C11.3122 0.839325 12.9442 1.59102 14.1766 2.8234C15.409 4.05578 16.1607 5.68781 16.2962 7.42538C16.4318 9.16295 15.9423 10.8918 14.916 12.3004C13.8896 13.709 12.3939 14.7047 10.6984 15.1081C9.08144 15.4927 7.38418 15.3146 5.88539 14.6074L1.6806 16.0327C1.47784 16.1015 1.25365 16.0491 1.10227 15.8978C0.950885 15.7464 0.89856 15.5222 0.967291 15.3194L2.39264 11.1146C1.68539 9.61584 1.50727 7.91858 1.89196 6.30165C2.29534 4.60612 3.29104 3.11042 4.69963 2.08407ZM9.48715 1.82536C8.01689 1.71066 6.55402 2.12486 5.36213 2.99331C4.17025 3.86176 3.32773 5.12735 2.98641 6.56203C2.64509 7.99671 2.8274 9.50612 3.50051 10.8183C3.56997 10.9537 3.5816 11.1115 3.53274 11.2556L2.39854 14.6015L5.74443 13.4673C5.88856 13.4184 6.04634 13.4301 6.18176 13.4995C7.4939 14.1726 9.00331 14.3549 10.438 14.0136C11.8727 13.6723 13.1383 12.8298 14.0067 11.6379C14.8752 10.446 15.2894 8.98313 15.1747 7.51288C15.06 6.04262 14.4239 4.66168 13.3811 3.6189C12.3383 2.57611 10.9574 1.94006 9.48715 1.82536Z" fill="white"/>
</svg>
