<svg width="12" height="12" viewBox="0 0 12 12" fill="none" xmlns="http://www.w3.org/2000/svg">
<path fill-rule="evenodd" clip-rule="evenodd" d="M6 0.1875C6.31066 0.1875 6.5625 0.43934 6.5625 0.75V5.4375H11.25C11.5607 5.4375 11.8125 5.68934 11.8125 6C11.8125 6.31066 11.5607 6.5625 11.25 6.5625H6.5625V11.25C6.5625 11.5607 6.31066 11.8125 6 11.8125C5.68934 11.8125 5.4375 11.5607 5.4375 11.25V6.5625H0.75C0.43934 6.5625 0.1875 6.31066 0.1875 6C0.1875 5.68934 0.43934 5.4375 0.75 5.4375H5.4375V0.75C5.4375 0.43934 5.68934 0.1875 6 0.1875Z" fill="white"/>
</svg>
