<svg width="18" height="18" viewBox="0 0 18 18" fill="none" xmlns="http://www.w3.org/2000/svg">
<path fill-rule="evenodd" clip-rule="evenodd" d="M7.5 2.8125C5.73959 2.8125 4.3125 4.23959 4.3125 6C4.3125 7.7477 5.71906 9.16688 7.46193 9.18728C7.48731 9.18713 7.5127 9.18713 7.53808 9.18728C9.28094 9.16687 10.6875 7.74769 10.6875 6C10.6875 4.23959 9.26041 2.8125 7.5 2.8125ZM9.84438 9.62021C11.0289 8.85154 11.8125 7.51728 11.8125 6C11.8125 3.61827 9.88173 1.6875 7.5 1.6875C5.11827 1.6875 3.1875 3.61827 3.1875 6C3.1875 7.51728 3.97107 8.85154 5.15562 9.62021C5.03589 9.666 4.91731 9.71538 4.80002 9.76832C3.64886 10.288 2.6721 11.1287 1.98696 12.1898C1.30183 13.2508 0.937431 14.487 0.9375 15.75C0.937517 16.0607 1.18937 16.3125 1.50003 16.3125C1.81069 16.3125 2.06252 16.0606 2.0625 15.75C2.06244 14.7035 2.36437 13.6792 2.93205 12.8C3.49974 11.9209 4.30905 11.2243 5.26288 10.7937C5.95647 10.4806 6.70504 10.3179 7.45979 10.3123C7.47318 10.3124 7.48658 10.3125 7.5 10.3125C7.51342 10.3125 7.52683 10.3124 7.54023 10.3123C7.79673 10.3142 8.05374 10.3343 8.30934 10.3727C9.34418 10.5285 10.3121 10.9796 11.0969 11.6718C11.3299 11.8773 11.6853 11.8551 11.8908 11.6221C12.0963 11.3891 12.0741 11.0337 11.8411 10.8282C11.2502 10.3069 10.5733 9.899 9.84438 9.62021ZM16.8977 12.3523C17.1174 12.5719 17.1174 12.9281 16.8977 13.1477L13.8977 16.1477C13.6781 16.3674 13.3219 16.3674 13.1023 16.1477L11.6023 14.6477C11.3826 14.4281 11.3826 14.0719 11.6023 13.8523C11.8219 13.6326 12.1781 13.6326 12.3977 13.8523L13.5 14.9545L16.1023 12.3523C16.3219 12.1326 16.6781 12.1326 16.8977 12.3523Z" fill="#111111"/>
</svg>
