<svg width="16" height="16" viewBox="0 0 16 16" fill="none" xmlns="http://www.w3.org/2000/svg">
<path d="M8.66669 4.66667V2C8.66669 1.63181 8.96516 1.33333 9.33335 1.33333C9.70154 1.33333 10 1.63181 10 2V4.66667H12.6667C13.0349 4.66667 13.3334 4.96514 13.3334 5.33333C13.3334 5.70152 13.0349 6 12.6667 6H10C9.6464 6 9.30736 5.85942 9.05731 5.60938C8.80726 5.35933 8.66669 5.02029 8.66669 4.66667Z" fill="#7E81A0"/>
<path d="M2.66669 12.6667V3.33333C2.66669 2.8029 2.87755 2.29434 3.25262 1.91927C3.6277 1.5442 4.13625 1.33333 4.66669 1.33333H9.33335C9.51017 1.33333 9.67968 1.40362 9.80471 1.52865L13.138 4.86198C13.2631 4.987 13.3334 5.15652 13.3334 5.33333V12.6667C13.3334 13.1971 13.1225 13.7057 12.7474 14.0807C12.3723 14.4558 11.8638 14.6667 11.3334 14.6667H4.66669C4.13625 14.6667 3.6277 14.4558 3.25262 14.0807C2.87755 13.7057 2.66669 13.1971 2.66669 12.6667ZM4.00002 12.6667C4.00002 12.8435 4.07031 13.013 4.19533 13.138C4.32036 13.263 4.48988 13.3333 4.66669 13.3333H11.3334C11.5102 13.3333 11.6797 13.263 11.8047 13.138C11.9297 13.013 12 12.8435 12 12.6667V5.60938L9.05731 2.66667H4.66669C4.48988 2.66667 4.32036 2.73696 4.19533 2.86198C4.07031 2.987 4.00002 3.15652 4.00002 3.33333V12.6667Z" fill="#7E81A0"/>
</svg>
