<svg width="50" height="48" viewBox="0 0 50 48" fill="none" xmlns="http://www.w3.org/2000/svg">
<path d="M0 12C0 5.37258 5.37258 0 12 0H38C44.6274 0 50 5.37258 50 12V36C50 42.6274 44.6274 48 38 48H12C5.37258 48 0 42.6274 0 36V12Z" fill="#A937F4"/>
<path fill-rule="evenodd" clip-rule="evenodd" d="M33.7756 15.2247C33.9454 15.3945 34.0029 15.6465 33.9236 15.8731L28.0902 32.5398C28.0056 32.7817 27.7819 32.9473 27.5258 32.9578C27.2698 32.9682 27.0333 32.8213 26.9292 32.5871L23.6935 25.3068L16.4132 22.0711C16.179 21.967 16.0321 21.7305 16.0425 21.4745C16.053 21.2185 16.2187 20.9947 16.4605 20.9101L33.1272 15.0767C33.3538 14.9974 33.6058 15.0549 33.7756 15.2247ZM24.9125 24.9717L27.4312 30.6389L31.839 18.0452L24.9125 24.9717ZM30.9551 17.1613L18.3614 21.5691L24.0286 24.0878L30.9551 17.1613Z" fill="#F7F9FC"/>
</svg>
