<svg width="17" height="12" viewBox="0 0 17 12" fill="none" xmlns="http://www.w3.org/2000/svg">
<path d="M1.47826 7.18235C2.96112 8.65654 5.5472 10.6999 8.48941 10.6999C11.4316 10.6999 14.0172 8.65654 15.5001 7.18235C15.8911 6.79357 16.0874 6.5985 16.2119 6.21678C16.3007 5.94442 16.3007 5.45563 16.2119 5.18326C16.0873 4.80152 15.8912 4.60643 15.5001 4.2176C14.0172 2.74341 11.4316 0.700012 8.48941 0.700012C5.5472 0.700012 2.96112 2.74342 1.47826 4.2176C1.08687 4.6067 0.891163 4.80139 0.766588 5.18326C0.677739 5.45562 0.677739 5.94442 0.766588 6.21678C0.891163 6.59865 1.08687 6.79326 1.47826 7.18235Z" stroke="white" stroke-width="1.4" stroke-linecap="round" stroke-linejoin="round"/>
<path d="M6.82259 5.70001C6.82259 6.62049 7.56878 7.36668 8.48926 7.36668C9.40973 7.36668 10.1559 6.62049 10.1559 5.70001C10.1559 4.77954 9.40973 4.03335 8.48926 4.03335C7.56878 4.03335 6.82259 4.77954 6.82259 5.70001Z" stroke="white" stroke-width="1.4" stroke-linecap="round" stroke-linejoin="round"/>
</svg>
