<svg width="18" height="18" viewBox="0 0 18 18" fill="none" xmlns="http://www.w3.org/2000/svg">
<path fill-rule="evenodd" clip-rule="evenodd" d="M5.625 1.25C3.20875 1.25 1.25 3.20875 1.25 5.625C1.25 8.04125 3.20875 10 5.625 10C8.04125 10 10 8.04125 10 5.625C10 3.20875 8.04125 1.25 5.625 1.25ZM0 5.625C0 2.5184 2.5184 0 5.625 0C8.7316 0 11.25 2.5184 11.25 5.625C11.25 8.7316 8.7316 11.25 5.625 11.25C2.5184 11.25 0 8.7316 0 5.625ZM4.16667 3.95833C4.16667 3.61316 4.44649 3.33333 4.79167 3.33333H5.625C5.97018 3.33333 6.25 3.61316 6.25 3.95833V7.29167C6.25 7.63684 5.97018 7.91667 5.625 7.91667C5.27982 7.91667 5 7.63684 5 7.29167V4.58333H4.79167C4.44649 4.58333 4.16667 4.30351 4.16667 3.95833ZM13.4477 7.38167C13.5683 7.05824 13.9282 6.89379 14.2517 7.01438C15.1379 7.34478 15.9265 7.89331 16.5446 8.60925C17.1626 9.32519 17.5902 10.1854 17.7877 11.1104C17.9852 12.0353 17.9463 12.9952 17.6745 13.9011C17.4028 14.807 16.907 15.6298 16.233 16.2934C15.559 16.9569 14.7286 17.4398 13.8185 17.6974C12.9085 17.955 11.9481 17.9789 11.0264 17.767C10.1046 17.5551 9.25115 17.1142 8.54494 16.485C7.83873 15.8558 7.30257 15.0588 6.98604 14.1675C6.87052 13.8422 7.04056 13.4849 7.36583 13.3694C7.69111 13.2539 8.04844 13.4239 8.16396 13.7492C8.41015 14.4424 8.82717 15.0623 9.37644 15.5517C9.92571 16.041 10.5895 16.3839 11.3064 16.5488C12.0234 16.7136 12.7703 16.695 13.4781 16.4946C14.1859 16.2943 14.8318 15.9187 15.356 15.4026C15.8803 14.8865 16.2659 14.2466 16.4772 13.542C16.6886 12.8374 16.7188 12.0908 16.5652 11.3714C16.4116 10.652 16.0791 9.98292 15.5984 9.42608C15.1177 8.86924 14.5043 8.4426 13.815 8.18563C13.4916 8.06504 13.3271 7.7051 13.4477 7.38167ZM12.4445 10.0799C12.6903 9.83759 13.0861 9.8404 13.3284 10.0862L13.9117 10.6779C14.1529 10.9224 14.1515 11.3158 13.9086 11.5586L11.5586 13.9086C11.3145 14.1527 10.9188 14.1527 10.6747 13.9086C10.4306 13.6645 10.4306 13.2688 10.6747 13.0247L12.5859 11.1135L12.4383 10.9638C12.1959 10.718 12.1987 10.3223 12.4445 10.0799Z" fill="#109A6A"/>
</svg>
