<svg width="18" height="18" viewBox="0 0 18 18" fill="none" xmlns="http://www.w3.org/2000/svg">
<path fill-rule="evenodd" clip-rule="evenodd" d="M2.29159 2.29159C2.67839 1.9048 3.20299 1.6875 3.75 1.6875H12C12.1492 1.6875 12.2923 1.74676 12.3977 1.85225L16.1477 5.60225C16.2532 5.70774 16.3125 5.85082 16.3125 6V14.25C16.3125 14.797 16.0952 15.3216 15.7084 15.7084C15.3216 16.0952 14.797 16.3125 14.25 16.3125H3.75C3.20299 16.3125 2.67839 16.0952 2.29159 15.7084C1.9048 15.3216 1.6875 14.797 1.6875 14.25V3.75C1.6875 3.20299 1.9048 2.67839 2.29159 2.29159ZM15.142 6.1875L11.8125 2.85799V5.25C11.8125 5.49864 11.9113 5.7371 12.0871 5.91291C12.2629 6.08873 12.5014 6.1875 12.75 6.1875H15.142ZM10.6875 2.8125V5.25C10.6875 5.79701 10.9048 6.32161 11.2916 6.70841C11.6784 7.0952 12.203 7.3125 12.75 7.3125H15.1875V14.25C15.1875 14.4986 15.0887 14.7371 14.9129 14.9129C14.7371 15.0887 14.4986 15.1875 14.25 15.1875H3.75C3.50136 15.1875 3.2629 15.0887 3.08709 14.9129C2.91127 14.7371 2.8125 14.4986 2.8125 14.25V3.75C2.8125 3.50136 2.91127 3.2629 3.08709 3.08709C3.2629 2.91127 3.50136 2.8125 3.75 2.8125H10.6875Z" fill="#111111"/>
</svg>
