<svg width="18" height="19" viewBox="0 0 18 19" fill="none" xmlns="http://www.w3.org/2000/svg">
<path fill-rule="evenodd" clip-rule="evenodd" d="M9 2.5625C5.16852 2.5625 2.0625 5.66852 2.0625 9.5C2.0625 13.3315 5.16852 16.4375 9 16.4375C12.8315 16.4375 15.9375 13.3315 15.9375 9.5C15.9375 5.66852 12.8315 2.5625 9 2.5625ZM0.9375 9.5C0.9375 5.0472 4.5472 1.4375 9 1.4375C13.4528 1.4375 17.0625 5.0472 17.0625 9.5C17.0625 13.9528 13.4528 17.5625 9 17.5625C4.5472 17.5625 0.9375 13.9528 0.9375 9.5ZM9 4.4375C9.31066 4.4375 9.5625 4.68934 9.5625 5V9.15236L12.2516 10.4969C12.5294 10.6358 12.642 10.9737 12.5031 11.2516C12.3642 11.5294 12.0263 11.642 11.7484 11.5031L8.74844 10.0031C8.55788 9.90783 8.4375 9.71306 8.4375 9.5V5C8.4375 4.68934 8.68934 4.4375 9 4.4375Z" fill="#8F96A5"/>
</svg>
