<svg width="15" height="14" viewBox="0 0 15 14" fill="none" xmlns="http://www.w3.org/2000/svg">
<path d="M7.45001 9.69995V5.19995M7.45001 5.19995L5.20001 6.69995M7.45001 5.19995L9.70001 6.69995M0.700012 2.19995V10.2999C0.700012 11.14 0.700012 11.5598 0.863502 11.8806C1.00731 12.1629 1.23662 12.3928 1.51886 12.5366C1.83941 12.7 2.25926 12.7 3.09769 12.7H11.8023C12.6408 12.7 13.06 12.7 13.3806 12.5366C13.6628 12.3928 13.8929 12.163 14.0367 11.8808C14.2002 11.5599 14.2002 11.1399 14.2002 10.2998L14.2002 4.59978C14.2002 3.75971 14.2002 3.33967 14.0367 3.0188C13.8929 2.73656 13.6629 2.50725 13.3807 2.36344C13.0598 2.19995 12.6401 2.19995 11.8 2.19995H7.45001M0.700012 2.19995H7.45001M0.700012 2.19995C0.700012 1.37152 1.37159 0.699951 2.20001 0.699951H4.9559C5.32279 0.699951 5.50666 0.699951 5.67929 0.741396C5.83235 0.778141 5.9784 0.8389 6.11261 0.921143C6.26394 1.01388 6.39387 1.14381 6.65314 1.40308L7.45001 2.19995" stroke="white" stroke-width="1.4" stroke-linecap="round" stroke-linejoin="round"/>
</svg>
