<svg width="23" height="23" viewBox="0 0 23 23" fill="none" xmlns="http://www.w3.org/2000/svg">
<path d="M9.20215 1.12891C9.96277 -0.376106 12.1115 -0.376106 12.8721 1.12891C13.3867 2.14713 14.6326 2.55157 15.6475 2.03027C17.1474 1.26001 18.8854 2.52294 18.6162 4.1875C18.434 5.31365 19.2038 6.3729 20.3311 6.54785C21.9974 6.80617 22.6621 8.8506 21.4658 10.0391C20.6565 10.8432 20.6565 12.152 21.4658 12.9561C22.6621 14.1445 21.9974 16.189 20.3311 16.4473C19.2038 16.6222 18.434 17.6815 18.6162 18.8076C18.8852 20.472 17.1473 21.7349 15.6475 20.9648C14.6326 20.4435 13.3867 20.8479 12.8721 21.8662C12.1114 23.371 9.96276 23.3711 9.20215 21.8662C8.68757 20.848 7.44255 20.4437 6.42773 20.9648C4.92787 21.7353 3.18905 20.4721 3.45801 18.8076C3.64018 17.6814 2.87054 16.6221 1.74316 16.4473C0.0768485 16.189 -0.587673 14.1445 0.608398 12.9561C1.4178 12.152 1.4178 10.8432 0.608398 10.0391C-0.587863 8.85059 0.0767842 6.80616 1.74316 6.54785C2.87056 6.37303 3.64019 5.31374 3.45801 4.1875C3.18882 2.52289 4.92779 1.25979 6.42773 2.03027C7.44247 2.55129 8.68753 2.14694 9.20215 1.12891ZM16.0137 7.68848C15.8428 7.51762 15.5654 7.51762 15.3945 7.68848L9.28711 13.7949L6.67969 11.1885C6.50883 11.0176 6.23238 11.0176 6.06152 11.1885C5.89073 11.3593 5.89069 11.6358 6.06152 11.8066L8.97754 14.7236C9.14837 14.8945 9.42582 14.8944 9.59668 14.7236L16.0137 8.30664C16.1841 8.1359 16.184 7.85927 16.0137 7.68848Z" fill="#A937F4"/>
</svg>
