<svg width="22" height="22" viewBox="0 0 22 22" fill="none" xmlns="http://www.w3.org/2000/svg">
<path fill-rule="evenodd" clip-rule="evenodd" d="M10.75 1.5C5.64137 1.5 1.5 5.64137 1.5 10.75C1.5 15.8586 5.64137 20 10.75 20C15.8586 20 20 15.8586 20 10.75C20 5.64137 15.8586 1.5 10.75 1.5ZM0 10.75C0 4.81294 4.81294 0 10.75 0C16.6871 0 21.5 4.81294 21.5 10.75C21.5 16.6871 16.6871 21.5 10.75 21.5C4.81294 21.5 0 16.6871 0 10.75ZM8.39611 6.08874C8.63997 5.95823 8.93588 5.97253 9.16603 6.12596L15.166 10.126C15.3747 10.2651 15.5 10.4992 15.5 10.75C15.5 11.0008 15.3747 11.2349 15.166 11.374L9.16603 15.374C8.93588 15.5275 8.63997 15.5418 8.39611 15.4113C8.15224 15.2807 8 15.0266 8 14.75V6.75C8 6.4734 8.15224 6.21926 8.39611 6.08874ZM9.5 8.15139V13.3486L13.3979 10.75L9.5 8.15139Z" fill="white"/>
</svg>
