<svg width="32" height="32" viewBox="0 0 32 32" fill="none" xmlns="http://www.w3.org/2000/svg">
<rect width="32" height="32" rx="8" fill="#626187" fill-opacity="0.2"/>
<g opacity="0.8">
<path d="M11.5 10.75C11.3011 10.75 11.1104 10.8291 10.9697 10.9697C10.8291 11.1104 10.75 11.3011 10.75 11.5C10.75 11.6989 10.8291 11.8896 10.9697 12.0303C11.1104 12.1709 11.3011 12.25 11.5 12.25H19V10.75H11.5ZM20.5 12.25C20.8978 12.25 21.2792 12.4081 21.5605 12.6895C21.8419 12.9708 22 13.3522 22 13.75V16C22 16.4142 21.6642 16.75 21.25 16.75C20.8358 16.75 20.5 16.4142 20.5 16V13.75H11.5C11.2417 13.75 10.9889 13.7028 10.75 13.6182V20.5C10.75 20.6989 10.8291 20.8896 10.9697 21.0303C11.1104 21.1709 11.3011 21.25 11.5 21.25H20.5V19C20.5 18.5858 20.8358 18.25 21.25 18.25C21.6642 18.25 22 18.5858 22 19V21.25C22 21.6478 21.8419 22.0292 21.5605 22.3105C21.2792 22.5919 20.8978 22.75 20.5 22.75H11.5C10.9033 22.75 10.3311 22.5128 9.90918 22.0908C9.48722 21.6689 9.25 21.0967 9.25 20.5V11.5C9.25 10.9033 9.48722 10.3311 9.90918 9.90918C10.3311 9.48722 10.9033 9.25 11.5 9.25H19C19.3978 9.25 19.7792 9.40815 20.0605 9.68945C20.3419 9.97076 20.5 10.3522 20.5 10.75V12.25Z" fill="white"/>
<path d="M22 15.25C22.4142 15.25 22.75 15.5858 22.75 16V19C22.75 19.4142 22.4142 19.75 22 19.75H19C18.4033 19.75 17.8311 19.5128 17.4092 19.0908C16.9872 18.6689 16.75 18.0967 16.75 17.5C16.75 16.9033 16.9872 16.3311 17.4092 15.9092C17.8311 15.4872 18.4033 15.25 19 15.25H22ZM18.25 17.5C18.25 17.6989 18.3291 17.8896 18.4697 18.0303C18.6104 18.1709 18.8011 18.25 19 18.25H21.25V16.75H19C18.8011 16.75 18.6104 16.8291 18.4697 16.9697C18.3291 17.1104 18.25 17.3011 18.25 17.5Z" fill="white"/>
</g>
</svg>
