<svg width="50" height="50" viewBox="0 0 50 50" fill="none" xmlns="http://www.w3.org/2000/svg">
<rect width="50" height="50" rx="16" fill="#9973FB"/>
<path fill-rule="evenodd" clip-rule="evenodd" d="M16.0806 17.0806C17.2527 15.9085 18.8424 15.25 20.5 15.25C21.4551 15.25 22.3124 15.3864 23.147 15.7499C23.7904 16.0301 24.3924 16.4332 25 16.9697C25.6076 16.4332 26.2096 16.0301 26.853 15.7499C27.6876 15.3864 28.5449 15.25 29.5 15.25C31.1576 15.25 32.7473 15.9085 33.9194 17.0806C35.0915 18.2527 35.75 19.8424 35.75 21.5C35.75 22.9411 35.2288 24.177 34.5127 25.2398C34.4925 25.2753 34.4692 25.3095 34.4427 25.3422C33.8659 26.1751 33.1735 26.9 32.5276 27.533L25.5303 34.5303C25.2374 34.8232 24.7626 34.8232 24.4697 34.5303L17.4741 27.5348C15.971 26.0812 14.25 24.1372 14.25 21.5C14.25 19.8424 14.9085 18.2527 16.0806 17.0806ZM28 29.9393L26.5303 28.4697C26.2374 28.1768 25.7626 28.1768 25.4697 28.4697C25.1768 28.7626 25.1768 29.2374 25.4697 29.5303L26.9393 31L25 32.9393L18.5303 26.4697L18.5213 26.4608C17.0255 25.0149 15.75 23.4601 15.75 21.5C15.75 20.2402 16.2504 19.032 17.1412 18.1412C18.032 17.2504 19.2402 16.75 20.5 16.75C21.3049 16.75 21.9476 16.8636 22.548 17.1251C22.9911 17.3181 23.4363 17.6026 23.9206 18.0187L21.5116 20.4277C21.5113 20.4281 21.5109 20.4284 21.5105 20.4288C21.2376 20.7 21.021 21.0225 20.8731 21.3777C20.7251 21.7333 20.6488 22.1147 20.6488 22.5C20.6488 22.8853 20.7251 23.2667 20.8731 23.6223C21.021 23.9776 21.2377 24.3001 21.5107 24.5714C22.6164 25.676 24.3786 25.7103 25.5407 24.6684L27.614 22.7654C27.6145 22.765 27.615 22.7645 27.6155 22.764C27.9962 22.4193 28.4914 22.2284 29.005 22.2284C29.5193 22.2284 30.0152 22.4198 30.396 22.7654L30.3987 22.7678L32.8498 24.9705C32.4405 25.4859 31.9692 25.9801 31.4751 26.4643L31 26.9393L29.5303 25.4697C29.2374 25.1768 28.7626 25.1768 28.4697 25.4697C28.1768 25.7626 28.1768 26.2374 28.4697 26.5303L29.9393 28L28 29.9393ZM33.6847 23.7041C34.0374 23.0213 34.25 22.2935 34.25 21.5C34.25 20.2402 33.7496 19.032 32.8588 18.1412C31.968 17.2504 30.7598 16.75 29.5 16.75C28.6951 16.75 28.0524 16.8636 27.452 17.1251C26.8467 17.3887 26.2376 17.8231 25.5303 18.5303L22.5684 21.4923C22.4354 21.6243 22.3299 21.7812 22.2579 21.9542C22.1859 22.1272 22.1488 22.3127 22.1488 22.5C22.1488 22.6873 22.1859 22.8728 22.2579 23.0458C22.3299 23.2188 22.4354 23.3758 22.5684 23.5077L22.5703 23.5097C23.1038 24.0432 23.9588 24.0693 24.5364 23.5542L26.606 21.6546C27.2628 21.0585 28.118 20.7284 29.005 20.7284C29.8913 20.7284 30.746 21.0581 31.4026 21.6534C31.4031 21.6538 31.4035 21.6542 31.404 21.6546L33.6847 23.7041Z" fill="white"/>
</svg>
